<svg width="25" height="24" viewBox="0 0 25 24" fill="none" xmlns="http://www.w3.org/2000/svg">
<path d="M12.0137 14L21.0137 9L12.0137 4L3.01367 9L12.0137 14Z" stroke="#939393"/>
<path d="M12.0137 13.9999L18.1737 10.5779C18.9843 12.636 19.2143 14.8771 18.8387 17.0569C16.3023 17.3031 13.911 18.3535 12.0137 20.0549C10.1168 18.3537 7.72583 17.3033 5.18975 17.0569C4.81395 14.8771 5.04398 12.6359 5.85475 10.5779L12.0137 13.9999Z" stroke="#939393"/>
<path d="M12.0137 14L21.0137 9L12.0137 4L3.01367 9L12.0137 14ZM12.0137 14L18.1737 10.578C18.9842 12.6361 19.2142 14.8772 18.8387 17.057C16.3022 17.3032 13.9109 18.3536 12.0137 20.055C10.1167 18.3538 7.72576 17.3034 5.18967 17.057C4.81387 14.8772 5.0439 12.636 5.85467 10.578L12.0137 14ZM8.01367 20V12.5L12.0137 10.278" stroke="#939393" stroke-width="2" stroke-linecap="round" stroke-linejoin="round"/>
</svg>
