<svg width="25" height="24" viewBox="0 0 25 24" fill="none" xmlns="http://www.w3.org/2000/svg">
<path d="M12.0137 6V4M12.0137 6C11.4832 6 10.9745 6.21071 10.5995 6.58579C10.2244 6.96086 10.0137 7.46957 10.0137 8C10.0137 8.53043 10.2244 9.03914 10.5995 9.41421C10.9745 9.78929 11.4832 10 12.0137 10M12.0137 6C12.5441 6 13.0528 6.21071 13.4279 6.58579C13.803 6.96086 14.0137 7.46957 14.0137 8C14.0137 8.53043 13.803 9.03914 13.4279 9.41421C13.0528 9.78929 12.5441 10 12.0137 10M12.0137 10V20M6.01367 18C6.5441 18 7.05281 17.7893 7.42789 17.4142C7.80296 17.0391 8.01367 16.5304 8.01367 16C8.01367 15.4696 7.80296 14.9609 7.42789 14.5858C7.05281 14.2107 6.5441 14 6.01367 14M6.01367 18C5.48324 18 4.97453 17.7893 4.59946 17.4142C4.22439 17.0391 4.01367 16.5304 4.01367 16C4.01367 15.4696 4.22439 14.9609 4.59946 14.5858C4.97453 14.2107 5.48324 14 6.01367 14M6.01367 18V20M6.01367 14V4M18.0137 18C18.5441 18 19.0528 17.7893 19.4279 17.4142C19.803 17.0391 20.0137 16.5304 20.0137 16C20.0137 15.4696 19.803 14.9609 19.4279 14.5858C19.0528 14.2107 18.5441 14 18.0137 14M18.0137 18C17.4832 18 16.9745 17.7893 16.5995 17.4142C16.2244 17.0391 16.0137 16.5304 16.0137 16C16.0137 15.4696 16.2244 14.9609 16.5995 14.5858C16.9745 14.2107 17.4832 14 18.0137 14M18.0137 18V20M18.0137 14V4" stroke="#939393" stroke-width="2" stroke-linecap="round" stroke-linejoin="round"/>
</svg>
