<svg width="25" height="24" viewBox="0 0 25 24" fill="none" xmlns="http://www.w3.org/2000/svg">
<path d="M7.01367 8H17.0137M7.01367 12H11.0137M12.0137 20L8.01367 16H5.01367C4.48324 16 3.97453 15.7893 3.59946 15.4142C3.22439 15.0391 3.01367 14.5304 3.01367 14V6C3.01367 5.46957 3.22439 4.96086 3.59946 4.58579C3.97453 4.21071 4.48324 4 5.01367 4H19.0137C19.5441 4 20.0528 4.21071 20.4279 4.58579C20.803 4.96086 21.0137 5.46957 21.0137 6V14C21.0137 14.5304 20.803 15.0391 20.4279 15.4142C20.0528 15.7893 19.5441 16 19.0137 16H16.0137L12.0137 20Z" stroke="#939393" stroke-width="2" stroke-linecap="round" stroke-linejoin="round"/>
</svg>
