<svg width="25" height="24" viewBox="0 0 25 24" fill="none" xmlns="http://www.w3.org/2000/svg">
<path d="M5.01367 8H19.0137M5.01367 8C4.48324 8 3.97453 7.78929 3.59946 7.41421C3.22439 7.03914 3.01367 6.53043 3.01367 6C3.01367 5.46957 3.22439 4.96086 3.59946 4.58579C3.97453 4.21071 4.48324 4 5.01367 4H19.0137C19.5441 4 20.0528 4.21071 20.4279 4.58579C20.803 4.96086 21.0137 5.46957 21.0137 6C21.0137 6.53043 20.803 7.03914 20.4279 7.41421C20.0528 7.78929 19.5441 8 19.0137 8M5.01367 8V18C5.01367 18.5304 5.22439 19.0391 5.59946 19.4142C5.97453 19.7893 6.48324 20 7.01367 20H17.0137C17.5441 20 18.0528 19.7893 18.4279 19.4142C18.803 19.0391 19.0137 18.5304 19.0137 18V8M10.0137 12H14.0137" stroke="#939393" stroke-width="2" stroke-linecap="round" stroke-linejoin="round"/>
</svg>
