<svg width="25" height="24" viewBox="0 0 25 24" fill="none" xmlns="http://www.w3.org/2000/svg">
<path d="M11.0137 15L8.01367 12M8.01367 12L11.0137 9M8.01367 12H16.0137M3.01367 12C3.01367 10.8181 3.24646 9.64778 3.69876 8.55585C4.15105 7.46392 4.81398 6.47177 5.64971 5.63604C6.48544 4.80031 7.47759 4.13738 8.56952 3.68508C9.66145 3.23279 10.8318 3 12.0137 3C13.1956 3 14.3659 3.23279 15.4578 3.68508C16.5498 4.13738 17.5419 4.80031 18.3776 5.63604C19.2134 6.47177 19.8763 7.46392 20.3286 8.55585C20.7809 9.64778 21.0137 10.8181 21.0137 12C21.0137 14.3869 20.0655 16.6761 18.3776 18.364C16.6898 20.0518 14.4006 21 12.0137 21C9.62672 21 7.33754 20.0518 5.64971 18.364C3.96188 16.6761 3.01367 14.3869 3.01367 12Z" stroke="#939393" stroke-width="2" stroke-linecap="round" stroke-linejoin="round"/>
</svg>
