<svg width="25" height="24" viewBox="0 0 25 24" fill="none" xmlns="http://www.w3.org/2000/svg">
<path d="M9.01367 11L12.0137 8M12.0137 8L15.0137 11M12.0137 8V16M12.0137 3C13.1956 3 14.3659 3.23279 15.4578 3.68508C16.5498 4.13738 17.5419 4.80031 18.3776 5.63604C19.2134 6.47177 19.8763 7.46392 20.3286 8.55585C20.7809 9.64778 21.0137 10.8181 21.0137 12C21.0137 13.1819 20.7809 14.3522 20.3286 15.4442C19.8763 16.5361 19.2134 17.5282 18.3776 18.364C17.5419 19.1997 16.5498 19.8626 15.4578 20.3149C14.3659 20.7672 13.1956 21 12.0137 21C9.62672 21 7.33754 20.0518 5.64971 18.364C3.96188 16.6761 3.01367 14.3869 3.01367 12C3.01367 9.61305 3.96188 7.32387 5.64971 5.63604C7.33754 3.94821 9.62672 3 12.0137 3Z" stroke="#939393" stroke-width="2" stroke-linecap="round" stroke-linejoin="round"/>
</svg>
