<svg width="25" height="24" viewBox="0 0 25 24" fill="none" xmlns="http://www.w3.org/2000/svg">
<path d="M15.0137 13L12.0137 16M12.0137 16L9.01367 13M12.0137 16V8M12.0137 21C10.8318 21 9.66145 20.7672 8.56952 20.3149C7.47759 19.8626 6.48544 19.1997 5.64971 18.364C4.81398 17.5282 4.15105 16.5361 3.69876 15.4442C3.24646 14.3522 3.01367 13.1819 3.01367 12C3.01367 10.8181 3.24646 9.64778 3.69876 8.55585C4.15105 7.46392 4.81398 6.47177 5.64971 5.63604C6.48544 4.80031 7.47759 4.13738 8.56952 3.68508C9.66145 3.23279 10.8318 3 12.0137 3C14.4006 3 16.6898 3.94821 18.3776 5.63604C20.0655 7.32387 21.0137 9.61305 21.0137 12C21.0137 14.3869 20.0655 16.6761 18.3776 18.364C16.6898 20.0518 14.4006 21 12.0137 21Z" stroke="#939393" stroke-width="2" stroke-linecap="round" stroke-linejoin="round"/>
</svg>
