<svg width="25" height="24" viewBox="0 0 25 24" fill="none" xmlns="http://www.w3.org/2000/svg">
<path d="M16.0137 12C16.0137 10.9391 15.5922 9.92172 14.8421 9.17158C14.092 8.42143 13.0745 8 12.0137 8C10.9528 8 9.93539 8.42143 9.18525 9.17158C8.4351 9.92172 8.01368 10.9391 8.01368 12C8.01368 13.0609 8.4351 14.0783 9.18525 14.8284C9.93539 15.5786 10.9528 16 12.0137 16C13.0745 16 14.092 15.5786 14.8421 14.8284C15.5922 14.0783 16.0137 13.0609 16.0137 12ZM16.0137 12V13.5C16.0137 14.163 16.2771 14.7989 16.7459 15.2678C17.2147 15.7366 17.8506 16 18.5137 16C19.1767 16 19.8126 15.7366 20.2814 15.2678C20.7503 14.7989 21.0137 14.163 21.0137 13.5V12C21.0137 10.22 20.4858 8.47991 19.4969 6.99987C18.508 5.51983 17.1024 4.36628 15.4578 3.68509C13.8133 3.0039 12.0037 2.82567 10.2579 3.17294C8.51203 3.5202 6.90839 4.37737 5.64971 5.63604C4.39104 6.89472 3.53388 8.49836 3.18661 10.2442C2.83934 11.99 3.01757 13.7996 3.69876 15.4442C4.37995 17.0887 5.5335 18.4943 7.01354 19.4832C8.49359 20.4722 10.2336 21 12.0137 21C13.5939 21.0016 15.1464 20.5862 16.5137 19.794" stroke="#939393" stroke-width="2" stroke-linecap="round" stroke-linejoin="round"/>
</svg>
