<svg width="25" height="24" viewBox="0 0 25 24" fill="none" xmlns="http://www.w3.org/2000/svg">
<path d="M12.0137 14L14.0137 12M14.0137 12L16.0137 10M14.0137 12L12.0137 10M14.0137 12L16.0137 14M3.01367 12L9.42767 18.414C9.80266 18.7891 10.3113 18.9999 10.8417 19H19.0137C19.5441 19 20.0528 18.7893 20.4279 18.4142C20.803 18.0391 21.0137 17.5304 21.0137 17V7C21.0137 6.46957 20.803 5.96086 20.4279 5.58579C20.0528 5.21071 19.5441 5 19.0137 5H10.8417C10.3113 5.00011 9.80266 5.2109 9.42767 5.586L3.01367 12Z" stroke="#939393" stroke-width="2" stroke-linecap="round" stroke-linejoin="round"/>
</svg>
