<svg width="25" height="24" viewBox="0 0 25 24" fill="none" xmlns="http://www.w3.org/2000/svg">
<path d="M19.4416 15.428C19.1624 15.1488 18.8068 14.9584 18.4196 14.881L16.0326 14.404C14.7242 14.1424 13.366 14.3243 12.1726 14.921L11.8546 15.079C10.6612 15.6757 9.30293 15.8576 7.99457 15.596L6.06357 15.21C5.74077 15.1455 5.40704 15.1617 5.092 15.2571C4.77696 15.3525 4.49033 15.5242 4.25757 15.757M8.01357 4H16.0136L15.0136 5V10.172C15.0137 10.7024 15.2245 11.211 15.5996 11.586L20.5996 16.586C21.8596 17.846 20.9666 20 19.1846 20H4.84157C3.05957 20 2.16757 17.846 3.42757 16.586L8.42757 11.586C8.80266 11.211 9.01345 10.7024 9.01357 10.172V5L8.01357 4Z" stroke="#939393" stroke-width="2" stroke-linecap="round" stroke-linejoin="round"/>
</svg>
