<svg width="25" height="24" viewBox="0 0 25 24" fill="none" xmlns="http://www.w3.org/2000/svg">
<path d="M15.0137 17H20.0137L18.6087 15.595C18.42 15.4063 18.2703 15.1822 18.1682 14.9357C18.0662 14.6891 18.0136 14.4249 18.0137 14.158V11C18.0138 9.75894 17.6293 8.54834 16.9129 7.53489C16.1966 6.52144 15.1837 5.75496 14.0137 5.341V5C14.0137 4.46957 13.803 3.96086 13.4279 3.58579C13.0528 3.21071 12.5441 3 12.0137 3C11.4832 3 10.9745 3.21071 10.5995 3.58579C10.2244 3.96086 10.0137 4.46957 10.0137 5V5.341C7.68367 6.165 6.01367 8.388 6.01367 11V14.159C6.01367 14.697 5.79967 15.214 5.41867 15.595L4.01367 17H9.01367M15.0137 17H9.01367M15.0137 17V18C15.0137 18.7956 14.6976 19.5587 14.135 20.1213C13.5724 20.6839 12.8093 21 12.0137 21C11.218 21 10.455 20.6839 9.89235 20.1213C9.32974 19.5587 9.01367 18.7956 9.01367 18V17" stroke="#939393" stroke-width="2" stroke-linecap="round" stroke-linejoin="round"/>
</svg>
