<svg width="25" height="24" viewBox="0 0 25 24" fill="none" xmlns="http://www.w3.org/2000/svg">
<path d="M16.0137 4V16L12.0137 14L8.01367 16V4H16.0137ZM6.01367 20H18.0137C18.5441 20 19.0528 19.7893 19.4279 19.4142C19.803 19.0391 20.0137 18.5304 20.0137 18V6C20.0137 5.46957 19.803 4.96086 19.4279 4.58579C19.0528 4.21071 18.5441 4 18.0137 4H6.01367C5.48324 4 4.97453 4.21071 4.59946 4.58579C4.22439 4.96086 4.01367 5.46957 4.01367 6V18C4.01367 18.5304 4.22439 19.0391 4.59946 19.4142C4.97453 19.7893 5.48324 20 6.01367 20Z" stroke="#939393" stroke-width="2" stroke-linecap="round" stroke-linejoin="round"/>
</svg>
