<svg width="25" height="24" viewBox="0 0 25 24" fill="none" xmlns="http://www.w3.org/2000/svg">
<path d="M21.0137 13.255C18.1542 14.4112 15.0981 15.0038 12.0137 15C8.83067 15 5.79367 14.38 3.01367 13.255M12.0137 12H12.0237M16.0137 6V4C16.0137 3.46957 15.803 2.96086 15.4279 2.58579C15.0528 2.21071 14.5441 2 14.0137 2H10.0137C9.48324 2 8.97453 2.21071 8.59946 2.58579C8.22439 2.96086 8.01367 3.46957 8.01367 4V6H16.0137ZM5.01367 20H19.0137C19.5441 20 20.0528 19.7893 20.4279 19.4142C20.803 19.0391 21.0137 18.5304 21.0137 18V8C21.0137 7.46957 20.803 6.96086 20.4279 6.58579C20.0528 6.21071 19.5441 6 19.0137 6H5.01367C4.48324 6 3.97453 6.21071 3.59946 6.58579C3.22439 6.96086 3.01367 7.46957 3.01367 8V18C3.01367 18.5304 3.22439 19.0391 3.59946 19.4142C3.97453 19.7893 4.48324 20 5.01367 20Z" stroke="#939393" stroke-width="2" stroke-linecap="round" stroke-linejoin="round"/>
</svg>
