<svg width="25" height="24" viewBox="0 0 25 24" fill="none" xmlns="http://www.w3.org/2000/svg">
<path d="M21.0137 15.546C20.4907 15.546 19.9677 15.697 19.5137 16C19.0695 16.2962 18.5475 16.4542 18.0137 16.4542C17.4798 16.4542 16.9579 16.2962 16.5137 16C16.0695 15.7038 15.5475 15.5458 15.0137 15.5458C14.4798 15.5458 13.9579 15.7038 13.5137 16C13.0695 16.2962 12.5475 16.4542 12.0137 16.4542C11.4798 16.4542 10.9579 16.2962 10.5137 16C10.0695 15.7038 9.54755 15.5458 9.01367 15.5458C8.4798 15.5458 7.95787 15.7038 7.51367 16C7.06947 16.2962 6.54755 16.4542 6.01367 16.4542C5.4798 16.4542 4.95787 16.2962 4.51367 16C4.06953 15.7037 3.54755 15.5458 3.01367 15.546M9.01367 6V8M12.0137 6V8M15.0137 6V8M9.01367 3H9.02367M12.0137 3H12.0237M15.0137 3H15.0237M21.0137 21V14C21.0137 13.4696 20.803 12.9609 20.4279 12.5858C20.0528 12.2107 19.5441 12 19.0137 12H5.01367C4.48324 12 3.97453 12.2107 3.59946 12.5858C3.22439 12.9609 3.01367 13.4696 3.01367 14V21H21.0137ZM18.0137 12V10C18.0137 9.46957 17.803 8.96086 17.4279 8.58579C17.0528 8.21071 16.5441 8 16.0137 8H8.01367C7.48324 8 6.97453 8.21071 6.59946 8.58579C6.22439 8.96086 6.01367 9.46957 6.01367 10V12H18.0137Z" stroke="#939393" stroke-width="2" stroke-linecap="round" stroke-linejoin="round"/>
</svg>
