<svg width="25" height="24" viewBox="0 0 25 24" fill="none" xmlns="http://www.w3.org/2000/svg">
<path d="M9.01367 7H15.0137M15.0137 17V14M12.0137 17H12.0237M9.01367 17H9.02367M9.01367 14H9.02367M12.0137 14H12.0237M15.0137 11H15.0237M12.0137 11H12.0237M9.01367 11H9.02367M7.01367 21H17.0137C17.5441 21 18.0528 20.7893 18.4279 20.4142C18.803 20.0391 19.0137 19.5304 19.0137 19V5C19.0137 4.46957 18.803 3.96086 18.4279 3.58579C18.0528 3.21071 17.5441 3 17.0137 3H7.01367C6.48324 3 5.97453 3.21071 5.59946 3.58579C5.22439 3.96086 5.01367 4.46957 5.01367 5V19C5.01367 19.5304 5.22439 20.0391 5.59946 20.4142C5.97453 20.7893 6.48324 21 7.01367 21Z" stroke="#939393" stroke-width="2" stroke-linecap="round" stroke-linejoin="round"/>
</svg>
