<svg width="25" height="24" viewBox="0 0 25 24" fill="none" xmlns="http://www.w3.org/2000/svg">
<path d="M8.01367 7V3M16.0137 7V3M7.01367 11H17.0137M5.01367 21H19.0137C19.5441 21 20.0528 20.7893 20.4279 20.4142C20.803 20.0391 21.0137 19.5304 21.0137 19V7C21.0137 6.46957 20.803 5.96086 20.4279 5.58579C20.0528 5.21071 19.5441 5 19.0137 5H5.01367C4.48324 5 3.97453 5.21071 3.59946 5.58579C3.22439 5.96086 3.01367 6.46957 3.01367 7V19C3.01367 19.5304 3.22439 20.0391 3.59946 20.4142C3.97453 20.7893 4.48324 21 5.01367 21Z" stroke="#939393" stroke-width="2" stroke-linecap="round" stroke-linejoin="round"/>
</svg>
