<svg width="25" height="24" viewBox="0 0 25 24" fill="none" xmlns="http://www.w3.org/2000/svg">
<path d="M3.59946 7.58579C3.22439 7.96086 3.01367 8.46957 3.01367 9V18C3.01367 18.5304 3.22439 19.0391 3.59946 19.4142C3.97453 19.7893 4.48324 20 5.01367 20H19.0137C19.5441 20 20.0528 19.7893 20.4279 19.4142C20.803 19.0391 21.0137 18.5304 21.0137 18V9C21.0137 8.46957 20.803 7.96086 20.4279 7.58579C20.0528 7.21071 19.5441 7 19.0137 7H18.0837C17.7545 7.00005 17.4304 6.91884 17.1401 6.76359C16.8498 6.60834 16.6024 6.38383 16.4197 6.11L15.6077 4.89C15.425 4.61617 15.1775 4.39166 14.8872 4.23641C14.597 4.08116 14.2729 3.99995 13.9437 4H10.0837C9.75449 3.99995 9.43038 4.08116 9.14011 4.23641C8.84983 4.39166 8.60237 4.61617 8.41967 4.89L7.60767 6.11C7.42497 6.38383 7.17751 6.60834 6.88724 6.76359C6.59696 6.91884 6.27286 7.00005 5.94367 7H5.01367C4.48324 7 3.97453 7.21071 3.59946 7.58579Z" stroke="#939393" stroke-width="2" stroke-linecap="round" stroke-linejoin="round"/>
<path d="M14.135 15.1213C14.6976 14.5587 15.0137 13.7956 15.0137 13C15.0137 12.2044 14.6976 11.4413 14.135 10.8787C13.5724 10.3161 12.8093 10 12.0137 10C11.218 10 10.455 10.3161 9.89235 10.8787C9.32974 11.4413 9.01367 12.2044 9.01367 13C9.01367 13.7956 9.32974 14.5587 9.89235 15.1213C10.455 15.6839 11.218 16 12.0137 16C12.8093 16 13.5724 15.6839 14.135 15.1213Z" stroke="#939393" stroke-width="2" stroke-linecap="round" stroke-linejoin="round"/>
</svg>
