<svg width="25" height="24" viewBox="0 0 25 24" fill="none" xmlns="http://www.w3.org/2000/svg">
<path d="M17.0137 9V7C17.0137 6.46957 16.803 5.96086 16.4279 5.58579C16.0528 5.21071 15.5441 5 15.0137 5H5.01367C4.48324 5 3.97453 5.21071 3.59946 5.58579C3.22439 5.96086 3.01367 6.46957 3.01367 7V13C3.01367 13.5304 3.22439 14.0391 3.59946 14.4142C3.97453 14.7893 4.48324 15 5.01367 15H7.01367M9.01367 19H19.0137C19.5441 19 20.0528 18.7893 20.4279 18.4142C20.803 18.0391 21.0137 17.5304 21.0137 17V11C21.0137 10.4696 20.803 9.96086 20.4279 9.58579C20.0528 9.21071 19.5441 9 19.0137 9H9.01367C8.48324 9 7.97453 9.21071 7.59946 9.58579C7.22439 9.96086 7.01367 10.4696 7.01367 11V17C7.01367 17.5304 7.22439 18.0391 7.59946 18.4142C7.97453 18.7893 8.48324 19 9.01367 19ZM16.0137 14C16.0137 14.5304 15.803 15.0391 15.4279 15.4142C15.0528 15.7893 14.5441 16 14.0137 16C13.4832 16 12.9745 15.7893 12.5995 15.4142C12.2244 15.0391 12.0137 14.5304 12.0137 14C12.0137 13.4696 12.2244 12.9609 12.5995 12.5858C12.9745 12.2107 13.4832 12 14.0137 12C14.5441 12 15.0528 12.2107 15.4279 12.5858C15.803 12.9609 16.0137 13.4696 16.0137 14Z" stroke="#939393" stroke-width="2" stroke-linecap="round" stroke-linejoin="round"/>
</svg>
