<svg width="25" height="24" viewBox="0 0 25 24" fill="none" xmlns="http://www.w3.org/2000/svg">
<path d="M9.01367 19V13C9.01367 12.4696 8.80296 11.9609 8.42789 11.5858C8.05281 11.2107 7.5441 11 7.01367 11H5.01367C4.48324 11 3.97453 11.2107 3.59946 11.5858C3.22439 11.9609 3.01367 12.4696 3.01367 13V19C3.01367 19.5304 3.22439 20.0391 3.59946 20.4142C3.97453 20.7893 4.48324 21 5.01367 21H7.01367C7.5441 21 8.05281 20.7893 8.42789 20.4142C8.80296 20.0391 9.01367 19.5304 9.01367 19ZM9.01367 19V9C9.01367 8.46957 9.22439 7.96086 9.59946 7.58579C9.97453 7.21071 10.4832 7 11.0137 7H13.0137C13.5441 7 14.0528 7.21071 14.4279 7.58579C14.803 7.96086 15.0137 8.46957 15.0137 9V19M9.01367 19C9.01367 19.5304 9.22439 20.0391 9.59946 20.4142C9.97453 20.7893 10.4832 21 11.0137 21H13.0137C13.5441 21 14.0528 20.7893 14.4279 20.4142C14.803 20.0391 15.0137 19.5304 15.0137 19M15.0137 19V5C15.0137 4.46957 15.2244 3.96086 15.5995 3.58579C15.9745 3.21071 16.4832 3 17.0137 3H19.0137C19.5441 3 20.0528 3.21071 20.4279 3.58579C20.803 3.96086 21.0137 4.46957 21.0137 5V19C21.0137 19.5304 20.803 20.0391 20.4279 20.4142C20.0528 20.7893 19.5441 21 19.0137 21H17.0137C16.4832 21 15.9745 20.7893 15.5995 20.4142C15.2244 20.0391 15.0137 19.5304 15.0137 19Z" stroke="#939393" stroke-width="2" stroke-linecap="round" stroke-linejoin="round"/>
</svg>
