<svg width="25" height="24" viewBox="0 0 25 24" fill="none" xmlns="http://www.w3.org/2000/svg">
<path d="M6.40608 4.95917C7.732 3.90325 9.32913 3.24319 11.0136 3.05493V12.9999H20.9586C20.7704 14.6844 20.1103 16.2816 19.0544 17.6075C17.9985 18.9334 16.5896 19.9342 14.99 20.4948C13.3904 21.0553 11.665 21.1528 10.0124 20.776C8.35982 20.3992 6.84721 19.5635 5.64866 18.3649C4.45012 17.1664 3.61435 15.6538 3.23755 14.0012C2.86075 12.3486 2.95824 10.6232 3.51878 9.02355C4.07933 7.42393 5.08016 6.01508 6.40608 4.95917Z" stroke="#939393" stroke-width="2" stroke-linecap="round" stroke-linejoin="round"/>
<path d="M15.0137 8.99996H20.5017C20.0527 7.73458 19.3271 6.5853 18.3777 5.6359C17.4283 4.6865 16.2791 3.96089 15.0137 3.51196V8.99996Z" stroke="#939393" stroke-width="2" stroke-linecap="round" stroke-linejoin="round"/>
</svg>
