<svg width="25" height="24" viewBox="0 0 25 24" fill="none" xmlns="http://www.w3.org/2000/svg">
<path d="M17.0137 8H19.0137C19.5441 8 20.0528 8.21071 20.4279 8.58579C20.803 8.96086 21.0137 9.46957 21.0137 10V16C21.0137 16.5304 20.803 17.0391 20.4279 17.4142C20.0528 17.7893 19.5441 18 19.0137 18H17.0137V22L13.0137 18H9.01367C8.751 18.0003 8.49086 17.9486 8.24821 17.8481C8.00555 17.7475 7.78515 17.6 7.59967 17.414M7.59967 17.414L11.0137 14H15.0137C15.5441 14 16.0528 13.7893 16.4279 13.4142C16.803 13.0391 17.0137 12.5304 17.0137 12V6C17.0137 5.46957 16.803 4.96086 16.4279 4.58579C16.0528 4.21071 15.5441 4 15.0137 4H5.01367C4.48324 4 3.97453 4.21071 3.59946 4.58579C3.22439 4.96086 3.01367 5.46957 3.01367 6V12C3.01367 12.5304 3.22439 13.0391 3.59946 13.4142C3.97453 13.7893 4.48324 14 5.01367 14H7.01367V18L7.59967 17.414Z" stroke="#939393" stroke-width="2" stroke-linecap="round" stroke-linejoin="round"/>
</svg>
