<svg width="25" height="24" viewBox="0 0 25 24" fill="none" xmlns="http://www.w3.org/2000/svg">
<path d="M9.01367 3V5M15.0137 3V5M9.01367 19V21M15.0137 19V21M5.01367 9H3.01367M5.01367 15H3.01367M21.0137 9H19.0137M21.0137 15H19.0137M7.01367 19H17.0137C17.5441 19 18.0528 18.7893 18.4279 18.4142C18.803 18.0391 19.0137 17.5304 19.0137 17V7C19.0137 6.46957 18.803 5.96086 18.4279 5.58579C18.0528 5.21071 17.5441 5 17.0137 5H7.01367C6.48324 5 5.97453 5.21071 5.59946 5.58579C5.22439 5.96086 5.01367 6.46957 5.01367 7V17C5.01367 17.5304 5.22439 18.0391 5.59946 18.4142C5.97453 18.7893 6.48324 19 7.01367 19ZM9.01367 9H15.0137V15H9.01367V9Z" stroke="#939393" stroke-width="2" stroke-linecap="round" stroke-linejoin="round"/>
</svg>
