<svg width="25" height="24" viewBox="0 0 25 24" fill="none" xmlns="http://www.w3.org/2000/svg">
<path d="M8.01367 5H6.01367C5.48324 5 4.97453 5.21071 4.59946 5.58579C4.22439 5.96086 4.01367 6.46957 4.01367 7V19C4.01367 19.5304 4.22439 20.0391 4.59946 20.4142C4.97453 20.7893 5.48324 21 6.01367 21H16.0137C16.5441 21 17.0528 20.7893 17.4279 20.4142C17.803 20.0391 18.0137 19.5304 18.0137 19V18M8.01367 5C8.01367 5.53043 8.22439 6.03914 8.59946 6.41421C8.97453 6.78929 9.48324 7 10.0137 7H12.0137C12.5441 7 13.0528 6.78929 13.4279 6.41421C13.803 6.03914 14.0137 5.53043 14.0137 5M8.01367 5C8.01367 4.46957 8.22439 3.96086 8.59946 3.58579C8.97453 3.21071 9.48324 3 10.0137 3H12.0137C12.5441 3 13.0528 3.21071 13.4279 3.58579C13.803 3.96086 14.0137 4.46957 14.0137 5M14.0137 5H16.0137C16.5441 5 17.0528 5.21071 17.4279 5.58579C17.803 5.96086 18.0137 6.46957 18.0137 7V10M20.0137 14H10.0137M10.0137 14L13.0137 11M10.0137 14L13.0137 17" stroke="#939393" stroke-width="2" stroke-linecap="round" stroke-linejoin="round"/>
</svg>
