<svg width="25" height="24" viewBox="0 0 25 24" fill="none" xmlns="http://www.w3.org/2000/svg">
<path d="M9.01367 5H7.01367C6.48324 5 5.97453 5.21071 5.59946 5.58579C5.22439 5.96086 5.01367 6.46957 5.01367 7V19C5.01367 19.5304 5.22439 20.0391 5.59946 20.4142C5.97453 20.7893 6.48324 21 7.01367 21H17.0137C17.5441 21 18.0528 20.7893 18.4279 20.4142C18.803 20.0391 19.0137 19.5304 19.0137 19V7C19.0137 6.46957 18.803 5.96086 18.4279 5.58579C18.0528 5.21071 17.5441 5 17.0137 5H15.0137M9.01367 5C9.01367 5.53043 9.22439 6.03914 9.59946 6.41421C9.97453 6.78929 10.4832 7 11.0137 7H13.0137C13.5441 7 14.0528 6.78929 14.4279 6.41421C14.803 6.03914 15.0137 5.53043 15.0137 5M9.01367 5C9.01367 4.46957 9.22439 3.96086 9.59946 3.58579C9.97453 3.21071 10.4832 3 11.0137 3H13.0137C13.5441 3 14.0528 3.21071 14.4279 3.58579C14.803 3.96086 15.0137 4.46957 15.0137 5M9.01367 14L11.0137 16L15.0137 12" stroke="#939393" stroke-width="2" stroke-linecap="round" stroke-linejoin="round"/>
</svg>
