<svg width="25" height="24" viewBox="0 0 25 24" fill="none" xmlns="http://www.w3.org/2000/svg">
<path d="M7.01362 16C6.02864 16.0011 5.07788 15.6388 4.34349 14.9823C3.60911 14.3259 3.14274 13.4216 3.03373 12.4427C2.92473 11.4638 3.18075 10.479 3.75276 9.67714C4.32476 8.87526 5.17252 8.31263 6.13362 8.09703C5.85554 6.80012 6.10405 5.44586 6.82447 4.33218C7.54489 3.21849 8.67822 2.43661 9.97512 2.15853C11.272 1.88045 12.6263 2.12895 13.74 2.84937C14.8537 3.56979 15.6355 4.70312 15.9136 6.00003H16.0136C17.2536 5.99878 18.4498 6.45831 19.37 7.2894C20.2902 8.12049 20.8687 9.26386 20.9933 10.4975C21.1179 11.7312 20.7797 12.9672 20.0443 13.9655C19.3089 14.9638 18.2288 15.6533 17.0136 15.9M9.01362 19L12.0136 22M12.0136 22L15.0136 19M12.0136 22V10" stroke="#939393" stroke-width="2" stroke-linecap="round" stroke-linejoin="round"/>
</svg>
