<svg width="25" height="24" viewBox="0 0 25 24" fill="none" xmlns="http://www.w3.org/2000/svg">
<path d="M4.18524 17.8284C3.4351 17.0783 3.01367 16.0608 3.01367 15C3.01363 14.0919 3.32248 13.2108 3.88948 12.5015C4.45648 11.7922 5.24789 11.2969 6.13367 11.097C5.98158 10.4495 5.96015 9.77816 6.07063 9.12228C6.18112 8.4664 6.4213 7.83914 6.77712 7.27721C7.13295 6.71527 7.59727 6.22995 8.14292 5.84962C8.68857 5.4693 9.30459 5.20161 9.95494 5.06223C10.6053 4.92285 11.2769 4.91458 11.9305 5.03789C12.5841 5.1612 13.2065 5.41362 13.7614 5.78038C14.3162 6.14714 14.7924 6.62088 15.1619 7.17388C15.5315 7.72687 15.7871 8.34802 15.9137 9.00098C16.5744 8.98776 17.2311 9.10564 17.846 9.3478C18.4608 9.58996 19.0215 9.9516 19.4958 10.4118C19.97 10.872 20.3483 11.4217 20.6088 12.029C20.8693 12.6363 21.0068 13.2892 21.0134 13.95C21.02 14.6108 20.8956 15.2663 20.6473 15.8787C20.399 16.4911 20.0318 17.0482 19.5668 17.5178C19.1019 17.9874 18.5485 18.3602 17.9386 18.6146C17.3288 18.869 16.6745 19 16.0137 19H7.01367C5.95281 19 4.93539 18.5785 4.18524 17.8284Z" stroke="#939393" stroke-width="2" stroke-linecap="round" stroke-linejoin="round"/>
</svg>
