<svg width="25" height="24" viewBox="0 0 25 24" fill="none" xmlns="http://www.w3.org/2000/svg">
<path d="M13.6887 4.317C13.2627 2.561 10.7647 2.561 10.3387 4.317C10.0627 5.452 8.76267 5.99 7.76667 5.382C6.22267 4.442 4.45667 6.209 5.39667 7.752C5.53797 7.98375 5.62256 8.24559 5.64354 8.51621C5.66452 8.78683 5.62131 9.05859 5.51742 9.30935C5.41353 9.56011 5.25189 9.7828 5.04567 9.95929C4.83945 10.1358 4.59447 10.2611 4.33067 10.325C2.57467 10.751 2.57467 13.249 4.33067 13.675C4.59424 13.7391 4.83896 13.8645 5.04494 14.0409C5.25093 14.2174 5.41237 14.44 5.51614 14.6906C5.61992 14.9412 5.66309 15.2128 5.64216 15.4832C5.62122 15.7537 5.53677 16.0153 5.39567 16.247C4.45567 17.791 6.22267 19.557 7.76567 18.617C7.99742 18.4757 8.25927 18.3911 8.52989 18.3701C8.80051 18.3491 9.07226 18.3924 9.32302 18.4963C9.57378 18.6001 9.79647 18.7618 9.97296 18.968C10.1495 19.1742 10.2748 19.4192 10.3387 19.683C10.7647 21.439 13.2627 21.439 13.6887 19.683C13.7528 19.4194 13.8781 19.1747 14.0546 18.9687C14.2311 18.7627 14.4537 18.6013 14.7043 18.4975C14.9549 18.3938 15.2265 18.3506 15.4969 18.3715C15.7673 18.3924 16.029 18.4769 16.2607 18.618C17.8047 19.558 19.5707 17.791 18.6307 16.248C18.4894 16.0162 18.4048 15.7544 18.3838 15.4838C18.3628 15.2132 18.406 14.9414 18.5099 14.6907C18.6138 14.4399 18.7755 14.2172 18.9817 14.0407C19.1879 13.8642 19.4329 13.7389 19.6967 13.675C21.4527 13.249 21.4527 10.751 19.6967 10.325C19.4331 10.2609 19.1884 10.1355 18.9824 9.95905C18.7764 9.78258 18.615 9.55999 18.5112 9.30938C18.4074 9.05877 18.3643 8.78721 18.3852 8.51677C18.4061 8.24634 18.4906 7.98466 18.6317 7.753C19.5717 6.209 17.8047 4.443 16.2617 5.383C16.0299 5.5243 15.7681 5.60889 15.4975 5.62987C15.2268 5.65085 14.9551 5.60764 14.7043 5.50375C14.4536 5.39985 14.2309 5.23822 14.0544 5.032C13.8779 4.82578 13.7526 4.5808 13.6887 4.317Z" stroke="#939393" stroke-width="2" stroke-linecap="round" stroke-linejoin="round"/>
<path d="M14.135 14.1213C14.6976 13.5587 15.0137 12.7956 15.0137 12C15.0137 11.2044 14.6976 10.4413 14.135 9.87868C13.5724 9.31607 12.8093 9 12.0137 9C11.218 9 10.455 9.31607 9.89235 9.87868C9.32974 10.4413 9.01367 11.2044 9.01367 12C9.01367 12.7956 9.32974 13.5587 9.89235 14.1213C10.455 14.6839 11.218 15 12.0137 15C12.8093 15 13.5724 14.6839 14.135 14.1213Z" stroke="#939393" stroke-width="2" stroke-linecap="round" stroke-linejoin="round"/>
</svg>
