<svg width="25" height="24" viewBox="0 0 25 24" fill="none" xmlns="http://www.w3.org/2000/svg">
<path d="M19.0137 11H5.01367M19.0137 11C19.5441 11 20.0528 11.2107 20.4279 11.5858C20.803 11.9609 21.0137 12.4696 21.0137 13V19C21.0137 19.5304 20.803 20.0391 20.4279 20.4142C20.0528 20.7893 19.5441 21 19.0137 21H5.01367C4.48324 21 3.97453 20.7893 3.59946 20.4142C3.22439 20.0391 3.01367 19.5304 3.01367 19V13C3.01367 12.4696 3.22439 11.9609 3.59946 11.5858C3.97453 11.2107 4.48324 11 5.01367 11M19.0137 11V9C19.0137 8.46957 18.803 7.96086 18.4279 7.58579C18.0528 7.21071 17.5441 7 17.0137 7M5.01367 11V9C5.01367 8.46957 5.22439 7.96086 5.59946 7.58579C5.97453 7.21071 6.48324 7 7.01367 7M17.0137 7V5C17.0137 4.46957 16.803 3.96086 16.4279 3.58579C16.0528 3.21071 15.5441 3 15.0137 3H9.01367C8.48324 3 7.97453 3.21071 7.59946 3.58579C7.22439 3.96086 7.01367 4.46957 7.01367 5V7M17.0137 7H7.01367" stroke="#939393" stroke-width="2" stroke-linecap="round" stroke-linejoin="round"/>
</svg>
