<svg width="25" height="24" viewBox="0 0 25 24" fill="none" xmlns="http://www.w3.org/2000/svg">
<path d="M7.01367 21C5.95281 21 4.93539 20.5786 4.18524 19.8284C3.4351 19.0783 3.01367 18.0609 3.01367 17V5C3.01367 4.46957 3.22439 3.96086 3.59946 3.58579C3.97453 3.21071 4.48324 3 5.01367 3H9.01367C9.5441 3 10.0528 3.21071 10.4279 3.58579C10.803 3.96086 11.0137 4.46957 11.0137 5V17C11.0137 18.0609 10.5922 19.0783 9.8421 19.8284M7.01367 21C8.07454 21 9.09195 20.5786 9.8421 19.8284M7.01367 21H19.0137C19.5441 21 20.0528 20.7893 20.4279 20.4142C20.803 20.0391 21.0137 19.5304 21.0137 19V15C21.0137 14.4696 20.803 13.9609 20.4279 13.5858C20.0528 13.2107 19.5441 13 19.0137 13H16.6707M9.8421 19.8284L18.3277 11.343C18.7026 10.9679 18.9132 10.4593 18.9132 9.929C18.9132 9.39867 18.7026 8.89006 18.3277 8.515L15.4987 5.686C15.1236 5.31106 14.615 5.10043 14.0847 5.10043C13.5543 5.10043 13.0457 5.31106 12.6707 5.686L11.0137 7.343M7.01367 17H7.02367" stroke="#939393" stroke-width="2" stroke-linecap="round" stroke-linejoin="round"/>
</svg>
