<svg width="25" height="24" viewBox="0 0 25 24" fill="none" xmlns="http://www.w3.org/2000/svg">
<path d="M3.01367 10H21.0137M7.01367 15H8.01367M12.0137 15H13.0137M6.01367 19H18.0137C18.8093 19 19.5724 18.6839 20.135 18.1213C20.6976 17.5587 21.0137 16.7956 21.0137 16V8C21.0137 7.20435 20.6976 6.44129 20.135 5.87868C19.5724 5.31607 18.8093 5 18.0137 5H6.01367C5.21802 5 4.45496 5.31607 3.89235 5.87868C3.32974 6.44129 3.01367 7.20435 3.01367 8V16C3.01367 16.7956 3.32974 17.5587 3.89235 18.1213C4.45496 18.6839 5.21802 19 6.01367 19Z" stroke="#939393" stroke-width="2" stroke-linecap="round" stroke-linejoin="round"/>
</svg>
