<svg width="25" height="24" viewBox="0 0 25 24" fill="none" xmlns="http://www.w3.org/2000/svg">
<path d="M14.0137 10L12.0137 11M12.0137 11L10.0137 10M12.0137 11V13.5M20.0137 7L18.0137 8M20.0137 7L18.0137 6M20.0137 7V9.5M14.0137 4L12.0137 3L10.0137 4M4.01367 7L6.01367 6M4.01367 7L6.01367 8M4.01367 7V9.5M12.0137 21L10.0137 20M12.0137 21L14.0137 20M12.0137 21V18.5M6.01367 18L4.01367 17V14.5M18.0137 18L20.0137 17V14.5" stroke="#939393" stroke-width="2" stroke-linecap="round" stroke-linejoin="round"/>
</svg>
