<svg width="25" height="24" viewBox="0 0 25 24" fill="none" xmlns="http://www.w3.org/2000/svg">
<path d="M9.01367 8H15.0137M10.0137 8C10.4076 8 10.7977 8.0776 11.1617 8.22836C11.5257 8.37913 11.8564 8.6001 12.135 8.87868C12.4136 9.15726 12.6345 9.48797 12.7853 9.85195C12.9361 10.2159 13.0137 10.606 13.0137 11C13.0137 11.394 12.9361 11.7841 12.7853 12.1481C12.6345 12.512 12.4136 12.8427 12.135 13.1213C11.8564 13.3999 11.5257 13.6209 11.1617 13.7716C10.7977 13.9224 10.4076 14 10.0137 14H9.01367L12.0137 17M9.01367 11H15.0137M21.0137 12C21.0137 13.1819 20.7809 14.3522 20.3286 15.4442C19.8763 16.5361 19.2134 17.5282 18.3776 18.364C17.5419 19.1997 16.5498 19.8626 15.4578 20.3149C14.3659 20.7672 13.1956 21 12.0137 21C10.8318 21 9.66145 20.7672 8.56952 20.3149C7.47759 19.8626 6.48544 19.1997 5.64971 18.364C4.81398 17.5282 4.15105 16.5361 3.69876 15.4442C3.24646 14.3522 3.01367 13.1819 3.01367 12C3.01367 9.61305 3.96188 7.32387 5.64971 5.63604C7.33754 3.94821 9.62672 3 12.0137 3C14.4006 3 16.6898 3.94821 18.3776 5.63604C20.0655 7.32387 21.0137 9.61305 21.0137 12Z" stroke="#939393" stroke-width="2" stroke-linecap="round" stroke-linejoin="round"/>
</svg>
