<svg width="25" height="24" viewBox="0 0 25 24" fill="none" xmlns="http://www.w3.org/2000/svg">
<path d="M4.01367 7V17C4.01367 19.21 7.59567 21 12.0137 21C16.4317 21 20.0137 19.21 20.0137 17V7M4.01367 7C4.01367 9.21 7.59567 11 12.0137 11C16.4317 11 20.0137 9.21 20.0137 7M4.01367 7C4.01367 4.79 7.59567 3 12.0137 3C16.4317 3 20.0137 4.79 20.0137 7M20.0137 12C20.0137 14.21 16.4317 16 12.0137 16C7.59567 16 4.01367 14.21 4.01367 12" stroke="#939393" stroke-width="2" stroke-linecap="round" stroke-linejoin="round"/>
</svg>
