<svg width="25" height="24" viewBox="0 0 25 24" fill="none" xmlns="http://www.w3.org/2000/svg">
<path d="M3.01367 13H21.0137M9.76367 17L9.01367 20L8.01367 21H16.0137L15.0137 20L14.2637 17H9.76367ZM5.01367 17H19.0137C19.5441 17 20.0528 16.7893 20.4279 16.4142C20.803 16.0391 21.0137 15.5304 21.0137 15V5C21.0137 4.46957 20.803 3.96086 20.4279 3.58579C20.0528 3.21071 19.5441 3 19.0137 3H5.01367C4.48324 3 3.97453 3.21071 3.59946 3.58579C3.22439 3.96086 3.01367 4.46957 3.01367 5V15C3.01367 15.5304 3.22439 16.0391 3.59946 16.4142C3.97453 16.7893 4.48324 17 5.01367 17Z" stroke="#939393" stroke-width="2" stroke-linecap="round" stroke-linejoin="round"/>
</svg>
