<svg width="25" height="24" viewBox="0 0 25 24" fill="none" xmlns="http://www.w3.org/2000/svg">
<path d="M8.01367 7V15C8.01367 15.5304 8.22439 16.0391 8.59946 16.4142C8.97453 16.7893 9.48324 17 10.0137 17H16.0137M8.01367 7V5C8.01367 4.46957 8.22439 3.96086 8.59946 3.58579C8.97453 3.21071 9.48324 3 10.0137 3H14.5997C14.8649 3.00006 15.1192 3.10545 15.3067 3.293L19.7207 7.707C19.9082 7.89449 20.0136 8.1488 20.0137 8.414V15C20.0137 15.5304 19.803 16.0391 19.4279 16.4142C19.0528 16.7893 18.5441 17 18.0137 17H16.0137M8.01367 7H6.01367C5.48324 7 4.97453 7.21071 4.59946 7.58579C4.22439 7.96086 4.01367 8.46957 4.01367 9V19C4.01367 19.5304 4.22439 20.0391 4.59946 20.4142C4.97453 20.7893 5.48324 21 6.01367 21H14.0137C14.5441 21 15.0528 20.7893 15.4279 20.4142C15.803 20.0391 16.0137 19.5304 16.0137 19V17" stroke="#939393" stroke-width="2" stroke-linecap="round" stroke-linejoin="round"/>
</svg>
