<svg width="25" height="24" viewBox="0 0 25 24" fill="none" xmlns="http://www.w3.org/2000/svg">
<path d="M9.01367 13H15.0137M12.0137 10V16M17.0137 21H7.01367C6.48324 21 5.97453 20.7893 5.59946 20.4142C5.22439 20.0391 5.01367 19.5304 5.01367 19V5C5.01367 4.46957 5.22439 3.96086 5.59946 3.58579C5.97453 3.21071 6.48324 3 7.01367 3H12.5997C12.8649 3.00006 13.1192 3.10545 13.3067 3.293L18.7207 8.707C18.9082 8.89449 19.0136 9.1488 19.0137 9.414V19C19.0137 19.5304 18.803 20.0391 18.4279 20.4142C18.0528 20.7893 17.5441 21 17.0137 21Z" stroke="#939393" stroke-width="2" stroke-linecap="round" stroke-linejoin="round"/>
</svg>
