<svg width="25" height="24" viewBox="0 0 25 24" fill="none" xmlns="http://www.w3.org/2000/svg">
<path d="M10.0137 21H17.0137C17.5441 21 18.0528 20.7893 18.4279 20.4142C18.803 20.0391 19.0137 19.5304 19.0137 19V9.414C19.0136 9.1488 18.9082 8.89449 18.7207 8.707L13.3067 3.293C13.1192 3.10545 12.8649 3.00006 12.5997 3H7.01367C6.48324 3 5.97453 3.21071 5.59946 3.58579C5.22439 3.96086 5.01367 4.46957 5.01367 5V16M5.01367 21L9.89267 16.121M9.89267 16.121C10.1704 16.4033 10.5012 16.6279 10.8662 16.7817C11.2311 16.9355 11.6229 17.0156 12.0189 17.0173C12.4149 17.0189 12.8073 16.9421 13.1735 16.7914C13.5397 16.6406 13.8725 16.4188 14.1525 16.1388C14.4326 15.8588 14.6544 15.5262 14.8053 15.16C14.9561 14.7938 15.033 14.4014 15.0314 14.0054C15.0299 13.6094 14.9499 13.2176 14.7962 12.8526C14.6424 12.4877 14.4179 12.1568 14.1357 11.879C13.5716 11.3239 12.811 11.0142 12.0196 11.0173C11.2282 11.0204 10.4701 11.3362 9.91037 11.8957C9.35069 12.4553 9.03478 13.2133 9.03147 14.0047C9.02815 14.7961 9.3377 15.5568 9.89267 16.121Z" stroke="#939393" stroke-width="2" stroke-linecap="round" stroke-linejoin="round"/>
</svg>
