<svg width="25" height="24" viewBox="0 0 25 24" fill="none" xmlns="http://www.w3.org/2000/svg">
<path d="M12.0137 5V5.01M12.0137 12V12.01M12.0137 19V19.01M12.0137 6C11.7485 6 11.4941 5.89464 11.3066 5.70711C11.119 5.51957 11.0137 5.26522 11.0137 5C11.0137 4.73478 11.119 4.48043 11.3066 4.29289C11.4941 4.10536 11.7485 4 12.0137 4C12.2789 4 12.5332 4.10536 12.7208 4.29289C12.9083 4.48043 13.0137 4.73478 13.0137 5C13.0137 5.26522 12.9083 5.51957 12.7208 5.70711C12.5332 5.89464 12.2789 6 12.0137 6ZM12.0137 13C11.7485 13 11.4941 12.8946 11.3066 12.7071C11.119 12.5196 11.0137 12.2652 11.0137 12C11.0137 11.7348 11.119 11.4804 11.3066 11.2929C11.4941 11.1054 11.7485 11 12.0137 11C12.2789 11 12.5332 11.1054 12.7208 11.2929C12.9083 11.4804 13.0137 11.7348 13.0137 12C13.0137 12.2652 12.9083 12.5196 12.7208 12.7071C12.5332 12.8946 12.2789 13 12.0137 13ZM12.0137 20C11.7485 20 11.4941 19.8946 11.3066 19.7071C11.119 19.5196 11.0137 19.2652 11.0137 19C11.0137 18.7348 11.119 18.4804 11.3066 18.2929C11.4941 18.1054 11.7485 18 12.0137 18C12.2789 18 12.5332 18.1054 12.7208 18.2929C12.9083 18.4804 13.0137 18.7348 13.0137 19C13.0137 19.2652 12.9083 19.5196 12.7208 19.7071C12.5332 19.8946 12.2789 20 12.0137 20Z" stroke="#939393" stroke-width="2" stroke-linecap="round" stroke-linejoin="round"/>
</svg>
