<svg width="25" height="24" viewBox="0 0 25 24" fill="none" xmlns="http://www.w3.org/2000/svg">
<path d="M5.01367 12H5.02367M12.0137 12H12.0237M19.0137 12H19.0237M6.01367 12C6.01367 12.2652 5.90831 12.5196 5.72078 12.7071C5.53324 12.8946 5.27889 13 5.01367 13C4.74846 13 4.4941 12.8946 4.30657 12.7071C4.11903 12.5196 4.01367 12.2652 4.01367 12C4.01367 11.7348 4.11903 11.4804 4.30657 11.2929C4.4941 11.1054 4.74846 11 5.01367 11C5.27889 11 5.53324 11.1054 5.72078 11.2929C5.90831 11.4804 6.01367 11.7348 6.01367 12ZM13.0137 12C13.0137 12.2652 12.9083 12.5196 12.7208 12.7071C12.5332 12.8946 12.2789 13 12.0137 13C11.7485 13 11.4941 12.8946 11.3066 12.7071C11.119 12.5196 11.0137 12.2652 11.0137 12C11.0137 11.7348 11.119 11.4804 11.3066 11.2929C11.4941 11.1054 11.7485 11 12.0137 11C12.2789 11 12.5332 11.1054 12.7208 11.2929C12.9083 11.4804 13.0137 11.7348 13.0137 12ZM20.0137 12C20.0137 12.2652 19.9083 12.5196 19.7208 12.7071C19.5332 12.8946 19.2789 13 19.0137 13C18.7485 13 18.4941 12.8946 18.3066 12.7071C18.119 12.5196 18.0137 12.2652 18.0137 12C18.0137 11.7348 18.119 11.4804 18.3066 11.2929C18.4941 11.1054 18.7485 11 19.0137 11C19.2789 11 19.5332 11.1054 19.7208 11.2929C19.9083 11.4804 20.0137 11.7348 20.0137 12Z" stroke="#939393" stroke-width="2" stroke-linecap="round" stroke-linejoin="round"/>
</svg>
