<svg width="25" height="24" viewBox="0 0 25 24" fill="none" xmlns="http://www.w3.org/2000/svg">
<path d="M8.01367 16H6.01367C5.48324 16 4.97453 15.7893 4.59946 15.4142C4.22439 15.0391 4.01367 14.5304 4.01367 14V6C4.01367 5.46957 4.22439 4.96086 4.59946 4.58579C4.97453 4.21071 5.48324 4 6.01367 4H14.0137C14.5441 4 15.0528 4.21071 15.4279 4.58579C15.803 4.96086 16.0137 5.46957 16.0137 6V8M10.0137 20H18.0137C18.5441 20 19.0528 19.7893 19.4279 19.4142C19.803 19.0391 20.0137 18.5304 20.0137 18V10C20.0137 9.46957 19.803 8.96086 19.4279 8.58579C19.0528 8.21071 18.5441 8 18.0137 8H10.0137C9.48324 8 8.97453 8.21071 8.59946 8.58579C8.22439 8.96086 8.01367 9.46957 8.01367 10V18C8.01367 18.5304 8.22439 19.0391 8.59946 19.4142C8.97453 19.7893 9.48324 20 10.0137 20Z" stroke="#939393" stroke-width="2" stroke-linecap="round" stroke-linejoin="round"/>
</svg>
