<svg width="25" height="24" viewBox="0 0 25 24" fill="none" xmlns="http://www.w3.org/2000/svg">
<path d="M13.8887 18.825C13.2706 18.9419 12.6428 19.0005 12.0137 19C7.5357 19 3.7457 16.057 2.4707 12C2.81397 10.9081 3.3427 9.88346 4.0337 8.971M9.8917 9.879C10.4544 9.31634 11.2175 9.00025 12.0132 9.00025C12.8089 9.00025 13.572 9.31634 14.1347 9.879C14.6974 10.4417 15.0135 11.2048 15.0135 12.0005C15.0135 12.7962 14.6974 13.5593 14.1347 14.122M9.8917 9.879L14.1347 14.122M9.8917 9.879L14.1337 14.12M14.1347 14.122L17.4257 17.412M9.8937 9.88L6.6037 6.59M6.6037 6.59L3.0137 3M6.6037 6.59C8.21606 5.54957 10.0948 4.9974 12.0137 5C16.4917 5 20.2817 7.943 21.5567 12C20.8528 14.2305 19.3911 16.1446 17.4247 17.411M6.6037 6.59L17.4247 17.411M17.4247 17.411L21.0137 21" stroke="#939393" stroke-width="2" stroke-linecap="round" stroke-linejoin="round"/>
</svg>
