<svg width="25" height="24" viewBox="0 0 25 24" fill="none" xmlns="http://www.w3.org/2000/svg">
<path d="M14.135 14.1213C14.6976 13.5587 15.0137 12.7956 15.0137 12C15.0137 11.2044 14.6976 10.4413 14.135 9.87868C13.5724 9.31607 12.8093 9 12.0137 9C11.218 9 10.455 9.31607 9.89235 9.87868C9.32974 10.4413 9.01367 11.2044 9.01367 12C9.01367 12.7956 9.32974 13.5587 9.89235 14.1213C10.455 14.6839 11.218 15 12.0137 15C12.8093 15 13.5724 14.6839 14.135 14.1213Z" stroke="#939393" stroke-width="2" stroke-linecap="round" stroke-linejoin="round"/>
<path d="M2.47168 12C3.74568 7.943 7.53668 5 12.0137 5C16.4917 5 20.2817 7.943 21.5557 12C20.2817 16.057 16.4917 19 12.0137 19C7.53668 19 3.74568 16.057 2.47168 12Z" stroke="#939393" stroke-width="2" stroke-linecap="round" stroke-linejoin="round"/>
</svg>
