<svg width="25" height="24" viewBox="0 0 25 24" fill="none" xmlns="http://www.w3.org/2000/svg">
<path d="M12.2411 12.4472C12.1717 12.5861 12.0709 12.7069 11.9467 12.8L6.61367 16.8C6.4651 16.9114 6.28844 16.9793 6.10348 16.996C5.91852 17.0126 5.73256 16.9775 5.56646 16.8944C5.40035 16.8114 5.26066 16.6837 5.16302 16.5257C5.06539 16.3678 5.01367 16.1857 5.01367 16V8C5.01367 7.81429 5.06539 7.63225 5.16302 7.47427C5.26066 7.31629 5.40035 7.18863 5.56646 7.10557C5.73256 7.02252 5.91852 6.98736 6.10348 7.00404C6.28844 7.02072 6.4651 7.08857 6.61367 7.2L11.9467 11.2C12.0709 11.2931 12.1717 11.4139 12.2411 11.5528C12.3105 11.6916 12.3467 11.8448 12.3467 12C12.3467 12.1552 12.3105 12.3084 12.2411 12.4472Z" stroke="#939393" stroke-width="2" stroke-linecap="round" stroke-linejoin="round"/>
<path d="M20.2411 12.4472C20.1717 12.5861 20.0709 12.7069 19.9467 12.8L14.6137 16.8C14.4651 16.9114 14.2884 16.9793 14.1035 16.996C13.9185 17.0126 13.7326 16.9775 13.5665 16.8944C13.4004 16.8114 13.2607 16.6837 13.163 16.5257C13.0654 16.3678 13.0137 16.1857 13.0137 16V8C13.0137 7.81429 13.0654 7.63225 13.163 7.47427C13.2607 7.31629 13.4004 7.18863 13.5665 7.10557C13.7326 7.02252 13.9185 6.98736 14.1035 7.00404C14.2884 7.02072 14.4651 7.08857 14.6137 7.2L19.9467 11.2C20.0709 11.2931 20.1717 11.4139 20.2411 11.5528C20.3105 11.6916 20.3467 11.8448 20.3467 12C20.3467 12.1552 20.3105 12.3084 20.2411 12.4472Z" stroke="#939393" stroke-width="2" stroke-linecap="round" stroke-linejoin="round"/>
</svg>
