<svg width="25" height="24" viewBox="0 0 25 24" fill="none" xmlns="http://www.w3.org/2000/svg">
<path d="M7.01367 4V20M17.0137 4V20M3.01367 8H7.01367M17.0137 8H21.0137M3.01367 12H21.0137M3.01367 16H7.01367M17.0137 16H21.0137M4.01367 20H20.0137C20.2789 20 20.5332 19.8946 20.7208 19.7071C20.9083 19.5196 21.0137 19.2652 21.0137 19V5C21.0137 4.73478 20.9083 4.48043 20.7208 4.29289C20.5332 4.10536 20.2789 4 20.0137 4H4.01367C3.74846 4 3.4941 4.10536 3.30657 4.29289C3.11903 4.48043 3.01367 4.73478 3.01367 5V19C3.01367 19.2652 3.11903 19.5196 3.30657 19.7071C3.4941 19.8946 3.74846 20 4.01367 20Z" stroke="#939393" stroke-width="2" stroke-linecap="round" stroke-linejoin="round"/>
</svg>
