<svg width="25" height="24" viewBox="0 0 25 24" fill="none" xmlns="http://www.w3.org/2000/svg">
<path d="M3.30657 3.29289C3.11903 3.48043 3.01367 3.73478 3.01367 4V6.586C3.01373 6.85119 3.11912 7.10551 3.30667 7.293L9.72067 13.707C9.90822 13.8945 10.0136 14.1488 10.0137 14.414V21L14.0137 17V14.414C14.0137 14.1488 14.1191 13.8945 14.3067 13.707L20.7207 7.293C20.9082 7.10551 21.0136 6.85119 21.0137 6.586V4C21.0137 3.73478 20.9083 3.48043 20.7208 3.29289C20.5332 3.10536 20.2789 3 20.0137 3H4.01367C3.74846 3 3.4941 3.10536 3.30657 3.29289Z" stroke="#939393" stroke-width="2" stroke-linecap="round" stroke-linejoin="round"/>
</svg>
