<svg width="25" height="24" viewBox="0 0 25 24" fill="none" xmlns="http://www.w3.org/2000/svg">
<path d="M12.0137 11.0001C12.0137 14.5171 11.0047 17.7991 9.26067 20.5711M5.82067 18.5311L5.87467 18.4411C7.27719 16.213 8.0189 13.6328 8.01367 11.0001C8.01367 9.93922 8.4351 8.92181 9.18524 8.17166C9.93539 7.42152 10.9528 7.00009 12.0137 7.00009C13.0745 7.00009 14.092 7.42152 14.8421 8.17166C15.5922 8.92181 16.0137 9.93922 16.0137 11.0001C16.0137 12.0171 15.9437 13.0191 15.8107 14.0001M13.6927 20.8441C14.3099 19.6126 14.8095 18.3255 15.1847 17.0001M19.0237 18.1321C19.6687 15.8661 20.0137 13.4731 20.0137 11.0001C20.014 9.59564 19.6446 8.21586 18.9425 6.99946C18.2405 5.78305 17.2307 4.7729 16.0145 4.07054C14.7982 3.36818 13.4186 2.99837 12.0141 2.99829C10.6097 2.99821 9.22996 3.36787 8.01367 4.07009M3.01367 15.3641C3.65367 14.0451 4.01367 12.5641 4.01367 11.0001C4.01367 9.54309 4.40367 8.17709 5.08367 7.00009" stroke="#939393" stroke-width="2" stroke-linecap="round" stroke-linejoin="round"/>
</svg>
