<svg width="25" height="24" viewBox="0 0 25 24" fill="none" xmlns="http://www.w3.org/2000/svg">
<path d="M12.0136 21.0002C14.1354 21.0002 16.1703 20.1573 17.6706 18.657C18.4146 17.9149 19.0046 17.0331 19.4067 16.0623C19.8088 15.0915 20.015 14.0508 20.0136 13C20.0149 11.9491 19.8085 10.9084 19.4062 9.93756C19.004 8.96674 18.4138 8.08499 17.6696 7.343C16.1036 5.777 14.0136 5 11.9996 3C9.51363 5 9.01363 8 9.01363 10C7.01363 9 6.35663 7.343 6.35663 7.343C4.8563 8.84333 4.01343 10.8782 4.01343 13C4.01343 15.1218 4.8563 17.1567 6.35663 18.657C7.85696 20.1573 9.89185 21.0002 12.0136 21.0002Z" stroke="#939393" stroke-width="2" stroke-linecap="round" stroke-linejoin="round"/>
<path d="M11.1414 16.8702C10.6699 16.7268 10.2411 16.4695 9.89267 16.121C9.30667 15.536 9.01367 14.768 9.01367 14H11.0137L12.0287 11C12.5214 11.0024 13.006 11.1261 13.4396 11.3602C13.8732 11.5943 14.2425 11.9316 14.5147 12.3423C14.787 12.753 14.9539 13.2245 15.0007 13.715C15.0475 14.2056 14.9728 14.7001 14.7831 15.1548C14.5934 15.6096 14.2946 16.0107 13.9131 16.3226C13.5316 16.6345 13.0791 16.8476 12.5957 16.9431C12.1123 17.0386 11.6128 17.0135 11.1414 16.8702Z" stroke="#939393" stroke-width="2" stroke-linecap="round" stroke-linejoin="round"/>
</svg>
