<svg width="25" height="24" viewBox="0 0 25 24" fill="none" xmlns="http://www.w3.org/2000/svg">
<path d="M5.01367 19C4.48324 19 3.97453 18.7893 3.59946 18.4142C3.22439 18.0391 3.01367 17.5304 3.01367 17V7C3.01367 6.46957 3.22439 5.96086 3.59946 5.58579C3.97453 5.21071 4.48324 5 5.01367 5H9.01367L11.0137 7H15.0137C15.5441 7 16.0528 7.21071 16.4279 7.58579C16.803 7.96086 17.0137 8.46957 17.0137 9V10M5.01367 19H19.0137C19.5441 19 20.0528 18.7893 20.4279 18.4142C20.803 18.0391 21.0137 17.5304 21.0137 17V12C21.0137 11.4696 20.803 10.9609 20.4279 10.5858C20.0528 10.2107 19.5441 10 19.0137 10H9.01367C8.48324 10 7.97453 10.2107 7.59946 10.5858C7.22439 10.9609 7.01367 11.4696 7.01367 12V17C7.01367 17.5304 6.80296 18.0391 6.42789 18.4142C6.05281 18.7893 5.5441 19 5.01367 19Z" stroke="#939393" stroke-width="2" stroke-linecap="round" stroke-linejoin="round"/>
</svg>
