<svg width="25" height="24" viewBox="0 0 25 24" fill="none" xmlns="http://www.w3.org/2000/svg">
<path d="M12.0137 8V21M12.0137 8V6C12.0137 5.60444 12.131 5.21776 12.3507 4.88886C12.5705 4.55996 12.8829 4.30362 13.2483 4.15224C13.6138 4.00087 14.0159 3.96126 14.4039 4.03843C14.7918 4.1156 15.1482 4.30608 15.4279 4.58579C15.7076 4.86549 15.8981 5.22186 15.9752 5.60982C16.0524 5.99778 16.0128 6.39992 15.8614 6.76537C15.7101 7.13082 15.4537 7.44318 15.1248 7.66294C14.7959 7.8827 14.4092 8 14.0137 8H12.0137ZM12.0137 8V5.5C12.0137 5.00555 11.867 4.5222 11.5923 4.11108C11.3176 3.69995 10.9272 3.37952 10.4704 3.1903C10.0136 3.00108 9.5109 2.95157 9.02595 3.04804C8.54099 3.1445 8.09554 3.3826 7.7459 3.73223C7.39627 4.08187 7.15817 4.52732 7.06171 5.01228C6.96525 5.49723 7.01475 5.99989 7.20397 6.45671C7.39319 6.91352 7.71362 7.30397 8.12475 7.57867C8.53587 7.85338 9.01922 8 9.51367 8H12.0137ZM5.01367 12H19.0137M5.01367 12C4.48324 12 3.97453 11.7893 3.59946 11.4142C3.22439 11.0391 3.01367 10.5304 3.01367 10C3.01367 9.46957 3.22439 8.96086 3.59946 8.58579C3.97453 8.21072 4.48324 8 5.01367 8H19.0137C19.5441 8 20.0528 8.21072 20.4279 8.58579C20.803 8.96086 21.0137 9.46957 21.0137 10C21.0137 10.5304 20.803 11.0391 20.4279 11.4142C20.0528 11.7893 19.5441 12 19.0137 12M5.01367 12V19C5.01367 19.5304 5.22439 20.0391 5.59946 20.4142C5.97453 20.7893 6.48324 21 7.01367 21H17.0137C17.5441 21 18.0528 20.7893 18.4279 20.4142C18.803 20.0391 19.0137 19.5304 19.0137 19V12" stroke="#939393" stroke-width="2" stroke-linecap="round" stroke-linejoin="round"/>
</svg>
