<svg width="25" height="24" viewBox="0 0 25 24" fill="none" xmlns="http://www.w3.org/2000/svg">
<path d="M3.06867 11H5.01367C5.5441 11 6.05281 11.2107 6.42789 11.5858C6.80296 11.9609 7.01367 12.4696 7.01367 13V14C7.01367 14.5304 7.22439 15.0391 7.59946 15.4142C7.97453 15.7893 8.48324 16 9.01367 16C9.5441 16 10.0528 16.2107 10.4279 16.5858C10.803 16.9609 11.0137 17.4696 11.0137 18V20.945M8.01367 3.935V5.5C8.01367 6.16304 8.27706 6.79893 8.7459 7.26777C9.21475 7.73661 9.85063 8 10.5137 8H11.0137C11.5441 8 12.0528 8.21071 12.4279 8.58579C12.803 8.96086 13.0137 9.46957 13.0137 10C13.0137 10.5304 13.2244 11.0391 13.5995 11.4142C13.9745 11.7893 14.4832 12 15.0137 12C15.5441 12 16.0528 11.7893 16.4279 11.4142C16.803 11.0391 17.0137 10.5304 17.0137 10C17.0137 9.46957 17.2244 8.96086 17.5995 8.58579C17.9745 8.21071 18.4832 8 19.0137 8H20.0777M15.0137 20.488V18C15.0137 17.4696 15.2244 16.9609 15.5995 16.5858C15.9745 16.2107 16.4832 16 17.0137 16H20.0777M21.0137 12C21.0137 13.1819 20.7809 14.3522 20.3286 15.4442C19.8763 16.5361 19.2134 17.5282 18.3776 18.364C17.5419 19.1997 16.5498 19.8626 15.4578 20.3149C14.3659 20.7672 13.1956 21 12.0137 21C10.8318 21 9.66145 20.7672 8.56952 20.3149C7.47759 19.8626 6.48544 19.1997 5.64971 18.364C4.81398 17.5282 4.15105 16.5361 3.69876 15.4442C3.24646 14.3522 3.01367 13.1819 3.01367 12C3.01367 9.61305 3.96188 7.32387 5.64971 5.63604C7.33754 3.94821 9.62672 3 12.0137 3C14.4006 3 16.6898 3.94821 18.3776 5.63604C20.0655 7.32387 21.0137 9.61305 21.0137 12Z" stroke="#939393" stroke-width="2" stroke-linecap="round" stroke-linejoin="round"/>
</svg>
