<svg width="25" height="24" viewBox="0 0 25 24" fill="none" xmlns="http://www.w3.org/2000/svg">
<path d="M21.0137 12C21.0137 14.3869 20.0655 16.6761 18.3776 18.364C16.6898 20.0518 14.4006 21 12.0137 21M21.0137 12C21.0137 9.61305 20.0655 7.32387 18.3776 5.63604C16.6898 3.94821 14.4006 3 12.0137 3M21.0137 12H3.01367M12.0137 21C9.62672 21 7.33754 20.0518 5.64971 18.364C3.96188 16.6761 3.01367 14.3869 3.01367 12M12.0137 21C13.6707 21 15.0137 16.97 15.0137 12C15.0137 7.03 13.6707 3 12.0137 3M12.0137 21C10.3567 21 9.01367 16.97 9.01367 12C9.01367 7.03 10.3567 3 12.0137 3M12.0137 3C9.62672 3 7.33754 3.94821 5.64971 5.63604C3.96188 7.32387 3.01367 9.61305 3.01367 12" stroke="#939393" stroke-width="2" stroke-linecap="round" stroke-linejoin="round"/>
</svg>
