<svg width="25" height="24" viewBox="0 0 25 24" fill="none" xmlns="http://www.w3.org/2000/svg">
<path d="M7.01367 11.5V14M7.01367 11.5V5.5C7.01367 5.10218 7.17171 4.72064 7.45301 4.43934C7.73432 4.15804 8.11585 4 8.51367 4C8.9115 4 9.29303 4.15804 9.57433 4.43934C9.85564 4.72064 10.0137 5.10218 10.0137 5.5M7.01367 11.5C7.01367 11.1022 6.85564 10.7206 6.57433 10.4393C6.29303 10.158 5.9115 10 5.51367 10C5.11585 10 4.73432 10.158 4.45301 10.4393C4.17171 10.7206 4.01367 11.1022 4.01367 11.5V13.5C4.01367 15.4891 4.80385 17.3968 6.21037 18.8033C7.61689 20.2098 9.52455 21 11.5137 21C13.5028 21 15.4104 20.2098 16.817 18.8033C18.2235 17.3968 19.0137 15.4891 19.0137 13.5V8.5C19.0137 8.10218 18.8556 7.72064 18.5743 7.43934C18.293 7.15804 17.9115 7 17.5137 7C17.1158 7 16.7343 7.15804 16.453 7.43934C16.1717 7.72064 16.0137 8.10218 16.0137 8.5M10.0137 5.5V11M10.0137 5.5V4.5C10.0137 4.10218 10.1717 3.72064 10.453 3.43934C10.7343 3.15804 11.1158 3 11.5137 3C11.9115 3 12.293 3.15804 12.5743 3.43934C12.8556 3.72064 13.0137 4.10218 13.0137 4.5V5.5M16.0137 8.5V5.5C16.0137 5.10218 15.8556 4.72064 15.5743 4.43934C15.293 4.15804 14.9115 4 14.5137 4C14.1158 4 13.7343 4.15804 13.453 4.43934C13.1717 4.72064 13.0137 5.10218 13.0137 5.5M16.0137 8.5V11M13.0137 5.5V11" stroke="#939393" stroke-width="2" stroke-linecap="round" stroke-linejoin="round"/>
</svg>
