<svg width="25" height="24" viewBox="0 0 25 24" fill="none" xmlns="http://www.w3.org/2000/svg">
<path d="M3.35622 7.77795C3.58237 7.23198 3.91384 6.7359 4.33171 6.31804C4.74957 5.90017 5.24565 5.5687 5.79162 5.34255C6.33759 5.1164 6.92276 5 7.51371 5C8.10466 5 8.68983 5.1164 9.2358 5.34255C9.78177 5.5687 10.2778 5.90017 10.6957 6.31804L12.0137 7.63604L13.3317 6.31804C14.1756 5.47412 15.3202 5.00001 16.5137 5.00001C17.7072 5.00001 18.8518 5.47412 19.6957 6.31804C20.5396 7.16196 21.0137 8.30656 21.0137 9.50004C21.0137 10.6935 20.5396 11.8381 19.6957 12.682L12.0137 20.364L4.33171 12.682C3.91384 12.2642 3.58237 11.7681 3.35622 11.2221C3.13007 10.6762 3.01367 10.091 3.01367 9.50004C3.01367 8.90909 3.13007 8.32392 3.35622 7.77795Z" stroke="#939393" stroke-width="2" stroke-linecap="round" stroke-linejoin="round"/>
</svg>
