<svg width="25" height="24" viewBox="0 0 25 24" fill="none" xmlns="http://www.w3.org/2000/svg">
<path d="M3.01367 12L5.01367 10M5.01367 10L12.0137 3L19.0137 10M5.01367 10V20C5.01367 20.2652 5.11903 20.5196 5.30657 20.7071C5.4941 20.8946 5.74846 21 6.01367 21H9.01367M19.0137 10L21.0137 12M19.0137 10V20C19.0137 20.2652 18.9083 20.5196 18.7208 20.7071C18.5332 20.8946 18.2789 21 18.0137 21H15.0137M9.01367 21C9.27889 21 9.53324 20.8946 9.72078 20.7071C9.90831 20.5196 10.0137 20.2652 10.0137 20V16C10.0137 15.7348 10.119 15.4804 10.3066 15.2929C10.4941 15.1054 10.7485 15 11.0137 15H13.0137C13.2789 15 13.5332 15.1054 13.7208 15.2929C13.9083 15.4804 14.0137 15.7348 14.0137 16V20C14.0137 20.2652 14.119 20.5196 14.3066 20.7071C14.4941 20.8946 14.7485 21 15.0137 21M9.01367 21H15.0137" stroke="#939393" stroke-width="2" stroke-linecap="round" stroke-linejoin="round"/>
</svg>
