<svg width="25" height="24" viewBox="0 0 25 24" fill="none" xmlns="http://www.w3.org/2000/svg">
<path d="M10.0137 6H5.01367C4.48324 6 3.97453 6.21071 3.59946 6.58579C3.22439 6.96086 3.01367 7.46957 3.01367 8V17C3.01367 17.5304 3.22439 18.0391 3.59946 18.4142C3.97453 18.7893 4.48324 19 5.01367 19H19.0137C19.5441 19 20.0528 18.7893 20.4279 18.4142C20.803 18.0391 21.0137 17.5304 21.0137 17V8C21.0137 7.46957 20.803 6.96086 20.4279 6.58579C20.0528 6.21071 19.5441 6 19.0137 6H14.0137M10.0137 6V5C10.0137 4.46957 10.2244 3.96086 10.5995 3.58579C10.9745 3.21071 11.4832 3 12.0137 3C12.5441 3 13.0528 3.21071 13.4279 3.58579C13.803 3.96086 14.0137 4.46957 14.0137 5V6M10.0137 6C10.0137 6.53043 10.2244 7.03914 10.5995 7.41421C10.9745 7.78929 11.4832 8 12.0137 8C12.5441 8 13.0528 7.78929 13.4279 7.41421C13.803 7.03914 14.0137 6.53043 14.0137 6M9.01367 14C9.5441 14 10.0528 13.7893 10.4279 13.4142C10.803 13.0391 11.0137 12.5304 11.0137 12C11.0137 11.4696 10.803 10.9609 10.4279 10.5858C10.0528 10.2107 9.5441 10 9.01367 10C8.48324 10 7.97453 10.2107 7.59946 10.5858C7.22439 10.9609 7.01367 11.4696 7.01367 12C7.01367 12.5304 7.22439 13.0391 7.59946 13.4142C7.97453 13.7893 8.48324 14 9.01367 14ZM9.01367 14C10.3197 14 11.4307 14.835 11.8437 16M9.01367 14C8.39305 13.9998 7.78765 14.1921 7.28082 14.5502C6.77399 14.9084 6.39068 15.4149 6.18367 16M15.0137 11H18.0137M15.0137 15H17.0137" stroke="#939393" stroke-width="2" stroke-linecap="round" stroke-linejoin="round"/>
</svg>
