<svg width="25" height="24" viewBox="0 0 25 24" fill="none" xmlns="http://www.w3.org/2000/svg">
<path d="M20.0137 13V6C20.0137 5.46957 19.803 4.96086 19.4279 4.58579C19.0528 4.21071 18.5441 4 18.0137 4H6.01367C5.48324 4 4.97453 4.21071 4.59946 4.58579C4.22439 4.96086 4.01367 5.46957 4.01367 6V13M20.0137 13V18C20.0137 18.5304 19.803 19.0391 19.4279 19.4142C19.0528 19.7893 18.5441 20 18.0137 20H6.01367C5.48324 20 4.97453 19.7893 4.59946 19.4142C4.22439 19.0391 4.01367 18.5304 4.01367 18V13M20.0137 13H17.4277C17.1625 13.0001 16.9082 13.1055 16.7207 13.293L14.3067 15.707C14.1192 15.8945 13.8649 15.9999 13.5997 16H10.4277C10.1625 15.9999 9.90816 15.8945 9.72067 15.707L7.30667 13.293C7.11918 13.1055 6.86487 13.0001 6.59967 13H4.01367" stroke="#939393" stroke-width="2" stroke-linecap="round" stroke-linejoin="round"/>
</svg>
