<svg width="25" height="24" viewBox="0 0 25 24" fill="none" xmlns="http://www.w3.org/2000/svg">
<path d="M15.0137 7.00008C15.5441 7.00008 16.0528 7.21079 16.4279 7.58586C16.803 7.96093 17.0137 8.46964 17.0137 9.00008M21.0137 9.00008C21.0139 9.93725 20.7947 10.8615 20.3735 11.6986C19.9522 12.5358 19.3408 13.2627 18.588 13.821C17.8353 14.3792 16.9623 14.7535 16.0389 14.9136C15.1155 15.0737 14.1674 15.0153 13.2707 14.7431L11.0137 17.0001H9.01367V19.0001H7.01367V21.0001H4.01367C3.74846 21.0001 3.4941 20.8947 3.30657 20.7072C3.11903 20.5196 3.01367 20.2653 3.01367 20.0001V17.4141C3.01373 17.1489 3.11912 16.8946 3.30667 16.7071L9.27067 10.7431C9.02112 9.91809 8.95224 9.04902 9.06872 8.19502C9.18519 7.34102 9.48429 6.52215 9.94566 5.79412C10.407 5.0661 11.0198 4.44602 11.7424 3.97609C12.4649 3.50617 13.2802 3.19743 14.1328 3.07088C14.9853 2.94434 15.8551 3.00296 16.683 3.24276C17.5109 3.48256 18.2774 3.89791 18.9303 4.46054C19.5833 5.02317 20.1073 5.71987 20.4668 6.50322C20.8263 7.28656 21.0128 8.13817 21.0137 9.00008Z" stroke="#939393" stroke-width="2" stroke-linecap="round" stroke-linejoin="round"/>
</svg>
