<svg width="25" height="24" viewBox="0 0 25 24" fill="none" xmlns="http://www.w3.org/2000/svg">
<path d="M9.67667 17H14.3497M12.0137 3V4M18.3777 5.636L17.6707 6.343M21.0137 12H20.0137M4.01367 12H3.01367M6.35667 6.343L5.64967 5.636M8.47767 15.536C7.77854 14.8367 7.30247 13.9458 7.10965 12.9759C6.91683 12.006 7.01592 11.0008 7.3944 10.0872C7.77288 9.17366 8.41374 8.39284 9.23596 7.84349C10.0582 7.29414 11.0248 7.00093 12.0137 7.00093C13.0025 7.00093 13.9692 7.29414 14.7914 7.84349C15.6136 8.39284 16.2545 9.17366 16.6329 10.0872C17.0114 11.0008 17.1105 12.006 16.9177 12.9759C16.7249 13.9458 16.2488 14.8367 15.5497 15.536L15.0017 16.083C14.6884 16.3963 14.4399 16.7683 14.2704 17.1777C14.1008 17.5871 14.0136 18.0259 14.0137 18.469V19C14.0137 19.5304 13.803 20.0391 13.4279 20.4142C13.0528 20.7893 12.5441 21 12.0137 21C11.4832 21 10.9745 20.7893 10.5995 20.4142C10.2244 20.0391 10.0137 19.5304 10.0137 19V18.469C10.0137 17.574 9.65767 16.715 9.02567 16.083L8.47767 15.536Z" stroke="#939393" stroke-width="2" stroke-linecap="round" stroke-linejoin="round"/>
</svg>
