<svg width="25" height="24" viewBox="0 0 25 24" fill="none" xmlns="http://www.w3.org/2000/svg">
<path d="M13.8418 10.1719C13.0916 9.42204 12.0744 9.00077 11.0138 9.00077C9.9531 9.00077 8.93586 9.42204 8.18575 10.1719L4.18575 14.1719C3.80371 14.5409 3.49898 14.9823 3.28935 15.4703C3.07971 15.9583 2.96937 16.4832 2.96475 17.0143C2.96014 17.5454 3.06134 18.0722 3.26247 18.5637C3.46359 19.0553 3.7606 19.5019 4.13617 19.8775C4.51174 20.2531 4.95835 20.5501 5.44994 20.7512C5.94152 20.9523 6.46824 21.0535 6.99936 21.0489C7.53047 21.0443 8.05535 20.934 8.54337 20.7243C9.03139 20.5147 9.47277 20.21 9.84175 19.8279L10.9438 18.7269M10.1858 13.8279C10.9359 14.5778 11.9531 14.9991 13.0138 14.9991C14.0744 14.9991 15.0916 14.5778 15.8418 13.8279L19.8418 9.82792C20.5704 9.07351 20.9736 8.0631 20.9644 7.01431C20.9553 5.96553 20.5347 4.96228 19.793 4.22065C19.0514 3.47901 18.0481 3.05834 16.9994 3.04922C15.9506 3.04011 14.9402 3.44329 14.1858 4.17192L13.0858 5.27192" stroke="#939393" stroke-width="2" stroke-linecap="round" stroke-linejoin="round"/>
</svg>
