<svg width="25" height="24" viewBox="0 0 25 24" fill="none" xmlns="http://www.w3.org/2000/svg">
<path d="M17.6707 16.657L13.4277 20.9C13.2421 21.0857 13.0218 21.233 12.7792 21.3336C12.5367 21.4341 12.2767 21.4859 12.0142 21.4859C11.7516 21.4859 11.4917 21.4341 11.2491 21.3336C11.0066 21.233 10.7862 21.0857 10.6007 20.9L6.35668 16.657C5.2379 15.5381 4.47601 14.1127 4.16736 12.5608C3.85871 11.009 4.01717 9.40047 4.62268 7.93868C5.22819 6.4769 6.25357 5.22749 7.56916 4.34846C8.88474 3.46943 10.4314 3.00024 12.0137 3.00024C13.5959 3.00024 15.1426 3.46943 16.4582 4.34846C17.7738 5.22749 18.7992 6.4769 19.4047 7.93868C20.0102 9.40047 20.1686 11.009 19.86 12.5608C19.5513 14.1127 18.7895 15.5381 17.6707 16.657V16.657Z" stroke="#939393" stroke-width="2" stroke-linecap="round" stroke-linejoin="round"/>
<path d="M14.135 13.1213C14.6976 12.5587 15.0137 11.7956 15.0137 11C15.0137 10.2044 14.6976 9.44129 14.135 8.87868C13.5724 8.31607 12.8093 8 12.0137 8C11.218 8 10.455 8.31607 9.89235 8.87868C9.32974 9.44129 9.01367 10.2044 9.01367 11C9.01367 11.7956 9.32974 12.5587 9.89235 13.1213C10.455 13.6839 11.218 14 12.0137 14C12.8093 14 13.5724 13.6839 14.135 13.1213Z" stroke="#939393" stroke-width="2" stroke-linecap="round" stroke-linejoin="round"/>
</svg>
