<svg width="25" height="24" viewBox="0 0 25 24" fill="none" xmlns="http://www.w3.org/2000/svg">
<path d="M12.0137 15V17M6.01367 21H18.0137C18.5441 21 19.0528 20.7893 19.4279 20.4142C19.803 20.0391 20.0137 19.5304 20.0137 19V13C20.0137 12.4696 19.803 11.9609 19.4279 11.5858C19.0528 11.2107 18.5441 11 18.0137 11H6.01367C5.48324 11 4.97453 11.2107 4.59946 11.5858C4.22439 11.9609 4.01367 12.4696 4.01367 13V19C4.01367 19.5304 4.22439 20.0391 4.59946 20.4142C4.97453 20.7893 5.48324 21 6.01367 21ZM16.0137 11V7C16.0137 5.93913 15.5922 4.92172 14.8421 4.17157C14.092 3.42143 13.0745 3 12.0137 3C10.9528 3 9.93539 3.42143 9.18524 4.17157C8.4351 4.92172 8.01367 5.93913 8.01367 7V11H16.0137Z" stroke="#939393" stroke-width="2" stroke-linecap="round" stroke-linejoin="round"/>
</svg>
