<svg width="25" height="24" viewBox="0 0 25 24" fill="none" xmlns="http://www.w3.org/2000/svg">
<path d="M11.0137 16L7.01367 12M7.01367 12L11.0137 8M7.01367 12H21.0137M16.0137 16V17C16.0137 17.7956 15.6976 18.5587 15.135 19.1213C14.5724 19.6839 13.8093 20 13.0137 20H6.01367C5.21802 20 4.45496 19.6839 3.89235 19.1213C3.32974 18.5587 3.01367 17.7956 3.01367 17V7C3.01367 6.20435 3.32974 5.44129 3.89235 4.87868C4.45496 4.31607 5.21802 4 6.01367 4H13.0137C13.8093 4 14.5724 4.31607 15.135 4.87868C15.6976 5.44129 16.0137 6.20435 16.0137 7V8" stroke="#939393" stroke-width="2" stroke-linecap="round" stroke-linejoin="round"/>
</svg>
