<svg width="25" height="24" viewBox="0 0 25 24" fill="none" xmlns="http://www.w3.org/2000/svg">
<path d="M17.0137 16L21.0137 12M21.0137 12L17.0137 8M21.0137 12H7.01367M13.0137 16V17C13.0137 17.7956 12.6976 18.5587 12.135 19.1213C11.5724 19.6839 10.8093 20 10.0137 20H6.01367C5.21802 20 4.45496 19.6839 3.89235 19.1213C3.32974 18.5587 3.01367 17.7956 3.01367 17V7C3.01367 6.20435 3.32974 5.44129 3.89235 4.87868C4.45496 4.31607 5.21802 4 6.01367 4H10.0137C10.8093 4 11.5724 4.31607 12.135 4.87868C12.6976 5.44129 13.0137 6.20435 13.0137 7V8" stroke="#939393" stroke-width="2" stroke-linecap="round" stroke-linejoin="round"/>
</svg>
