<svg width="25" height="24" viewBox="0 0 25 24" fill="none" xmlns="http://www.w3.org/2000/svg">
<path d="M3.01367 19.0001V10.0701C3.01362 9.74092 3.09483 9.41682 3.25008 9.12654C3.40534 8.83627 3.62984 8.58881 3.90367 8.40611L10.9037 3.74011C11.2323 3.52083 11.6186 3.40381 12.0137 3.40381C12.4088 3.40381 12.795 3.52083 13.1237 3.74011L20.1237 8.40611C20.3975 8.58881 20.622 8.83627 20.7773 9.12654C20.9325 9.41682 21.0137 9.74092 21.0137 10.0701V19.0001M3.01367 19.0001C3.01367 19.5305 3.22439 20.0392 3.59946 20.4143C3.97453 20.7894 4.48324 21.0001 5.01367 21.0001H19.0137C19.5441 21.0001 20.0528 20.7894 20.4279 20.4143C20.803 20.0392 21.0137 19.5305 21.0137 19.0001M3.01367 19.0001L9.76367 14.5001M21.0137 19.0001L14.2637 14.5001M9.76367 14.5001L3.01367 10.0001M9.76367 14.5001L10.9037 15.2601C11.2323 15.4794 11.6186 15.5964 12.0137 15.5964C12.4088 15.5964 12.795 15.4794 13.1237 15.2601L14.2637 14.5001M14.2637 14.5001L21.0137 10.0001" stroke="#939393" stroke-width="2" stroke-linecap="round" stroke-linejoin="round"/>
</svg>
