<svg width="25" height="24" viewBox="0 0 25 24" fill="none" xmlns="http://www.w3.org/2000/svg">
<path d="M3.01367 8L10.9037 13.26C11.2323 13.4793 11.6186 13.5963 12.0137 13.5963C12.4088 13.5963 12.795 13.4793 13.1237 13.26L21.0137 8M5.01367 19H19.0137C19.5441 19 20.0528 18.7893 20.4279 18.4142C20.803 18.0391 21.0137 17.5304 21.0137 17V7C21.0137 6.46957 20.803 5.96086 20.4279 5.58579C20.0528 5.21071 19.5441 5 19.0137 5H5.01367C4.48324 5 3.97453 5.21071 3.59946 5.58579C3.22439 5.96086 3.01367 6.46957 3.01367 7V17C3.01367 17.5304 3.22439 18.0391 3.59946 18.4142C3.97453 18.7893 4.48324 19 5.01367 19Z" stroke="#939393" stroke-width="2" stroke-linecap="round" stroke-linejoin="round"/>
</svg>
