<svg width="25" height="24" viewBox="0 0 25 24" fill="none" xmlns="http://www.w3.org/2000/svg">
<path d="M9.01367 20L3.56667 17.276C3.40059 17.193 3.26089 17.0654 3.16322 16.9075C3.06555 16.7496 3.01377 16.5677 3.01367 16.382V5.618C3.01376 5.44761 3.05739 5.28007 3.14042 5.13127C3.22344 4.98248 3.34311 4.85736 3.48807 4.76781C3.63302 4.67825 3.79846 4.62721 3.96868 4.61955C4.1389 4.61188 4.30825 4.64784 4.46067 4.724L9.01367 7M9.01367 20V7M9.01367 20L15.0137 17M9.01367 7L15.0137 4M15.0137 17L19.5667 19.276C19.7191 19.3522 19.8884 19.3881 20.0587 19.3805C20.2289 19.3728 20.3943 19.3218 20.5393 19.2322C20.6842 19.1426 20.8039 19.0175 20.8869 18.8687C20.97 18.7199 21.0136 18.5524 21.0137 18.382V7.618C21.0136 7.43234 20.9618 7.25037 20.8641 7.09247C20.7665 6.93458 20.6268 6.80699 20.4607 6.724L15.0137 4M15.0137 17V4" stroke="#939393" stroke-width="2" stroke-linecap="round" stroke-linejoin="round"/>
</svg>
