<svg width="25" height="24" viewBox="0 0 25 24" fill="none" xmlns="http://www.w3.org/2000/svg">
<path d="M19.0137 11C19.0137 12.8565 18.2762 14.637 16.9634 15.9497C15.6507 17.2625 13.8702 18 12.0137 18M12.0137 18C10.1572 18 8.37668 17.2625 7.06392 15.9497C5.75117 14.637 5.01367 12.8565 5.01367 11M12.0137 18V22M12.0137 22H8.01367M12.0137 22H16.0137M12.0137 14C11.218 14 10.455 13.6839 9.89235 13.1213C9.32974 12.5587 9.01367 11.7956 9.01367 11V5C9.01367 4.20435 9.32974 3.44129 9.89235 2.87868C10.455 2.31607 11.218 2 12.0137 2C12.8093 2 13.5724 2.31607 14.135 2.87868C14.6976 3.44129 15.0137 4.20435 15.0137 5V11C15.0137 11.7956 14.6976 12.5587 14.135 13.1213C13.5724 13.6839 12.8093 14 12.0137 14Z" stroke="#939393" stroke-width="2" stroke-linecap="round" stroke-linejoin="round"/>
</svg>
