<svg width="25" height="24" viewBox="0 0 25 24" fill="none" xmlns="http://www.w3.org/2000/svg">
<path d="M15.0137 12H9.01367M21.0137 12C21.0137 13.1819 20.7809 14.3522 20.3286 15.4442C19.8763 16.5361 19.2134 17.5282 18.3776 18.364C17.5419 19.1997 16.5498 19.8626 15.4578 20.3149C14.3659 20.7672 13.1956 21 12.0137 21C10.8318 21 9.66145 20.7672 8.56952 20.3149C7.47759 19.8626 6.48544 19.1997 5.64971 18.364C4.81398 17.5282 4.15105 16.5361 3.69876 15.4442C3.24646 14.3522 3.01367 13.1819 3.01367 12C3.01367 9.61305 3.96188 7.32387 5.64971 5.63604C7.33754 3.94821 9.62672 3 12.0137 3C14.4006 3 16.6898 3.94821 18.3776 5.63604C20.0655 7.32387 21.0137 9.61305 21.0137 12Z" stroke="#939393" stroke-width="2" stroke-linecap="round" stroke-linejoin="round"/>
</svg>
