<svg width="25" height="24" viewBox="0 0 25 24" fill="none" xmlns="http://www.w3.org/2000/svg">
<path d="M15.2083 15.8217C16.9368 16.1748 18.7309 16.0122 20.3677 15.354C19.6976 17.0213 18.544 18.45 17.0552 19.4562C15.5664 20.4624 13.8106 21.0001 12.0137 21C9.92405 20.9977 7.90029 20.2687 6.28932 18.9378C4.67835 17.6069 3.5805 15.757 3.18398 13.7054C2.78746 11.6537 3.11695 9.52805 4.11599 7.69272C5.11503 5.85739 6.72137 4.42673 8.65966 3.646C8.00146 5.28277 7.83882 7.0769 8.19194 8.80535C8.54506 10.5338 9.39839 12.1204 10.6458 13.3678C11.8933 14.6153 13.4798 15.4686 15.2083 15.8217Z" stroke="#939393" stroke-width="2" stroke-linecap="round" stroke-linejoin="round"/>
</svg>
