<svg width="25" height="24" viewBox="0 0 25 24" fill="none" xmlns="http://www.w3.org/2000/svg">
<path d="M9.01367 19V6L21.0137 3V16M9.01367 19C9.01367 20.105 7.67067 21 6.01367 21C4.35667 21 3.01367 20.105 3.01367 19C3.01367 17.895 4.35667 17 6.01367 17C7.67067 17 9.01367 17.895 9.01367 19ZM21.0137 16C21.0137 17.105 19.6707 18 18.0137 18C16.3567 18 15.0137 17.105 15.0137 16C15.0137 14.895 16.3567 14 18.0137 14C19.6707 14 21.0137 14.895 21.0137 16ZM9.01367 10L21.0137 7" stroke="#939393" stroke-width="2" stroke-linecap="round" stroke-linejoin="round"/>
</svg>
