<svg width="25" height="24" viewBox="0 0 25 24" fill="none" xmlns="http://www.w3.org/2000/svg">
<path d="M19.0137 20H5.01367C4.48324 20 3.97453 19.7893 3.59946 19.4142C3.22439 19.0391 3.01367 18.5304 3.01367 18V6C3.01367 5.46957 3.22439 4.96086 3.59946 4.58579C3.97453 4.21071 4.48324 4 5.01367 4H15.0137C15.5441 4 16.0528 4.21071 16.4279 4.58579C16.803 4.96086 17.0137 5.46957 17.0137 6V7M19.0137 20C18.4832 20 17.9745 19.7893 17.5995 19.4142C17.2244 19.0391 17.0137 18.5304 17.0137 18V7M19.0137 20C19.5441 20 20.0528 19.7893 20.4279 19.4142C20.803 19.0391 21.0137 18.5304 21.0137 18V9C21.0137 8.46957 20.803 7.96086 20.4279 7.58579C20.0528 7.21071 19.5441 7 19.0137 7H17.0137M13.0137 4H9.01367M7.01367 16H13.0137M7.01367 8H13.0137V12H7.01367V8Z" stroke="#939393" stroke-width="2" stroke-linecap="round" stroke-linejoin="round"/>
</svg>
