<svg width="25" height="24" viewBox="0 0 25 24" fill="none" xmlns="http://www.w3.org/2000/svg">
<path d="M19.0137 21V5C19.0137 4.46957 18.803 3.96086 18.4279 3.58579C18.0528 3.21071 17.5441 3 17.0137 3H7.01367C6.48324 3 5.97453 3.21071 5.59946 3.58579C5.22439 3.96086 5.01367 4.46957 5.01367 5V21M19.0137 21H5.01367M19.0137 21H21.0137M19.0137 21H14.0137M5.01367 21H3.01367M5.01367 21H10.0137M14.0137 21V16C14.0137 15.7348 13.9083 15.4804 13.7208 15.2929C13.5332 15.1054 13.2789 15 13.0137 15H11.0137C10.7485 15 10.4941 15.1054 10.3066 15.2929C10.119 15.4804 10.0137 15.7348 10.0137 16V21M14.0137 21H10.0137M9.01367 7H10.0137M9.01367 11H10.0137M14.0137 7H15.0137M14.0137 11H15.0137" stroke="#939393" stroke-width="2" stroke-linecap="round" stroke-linejoin="round"/>
</svg>
