<svg width="25" height="24" viewBox="0 0 25 24" fill="none" xmlns="http://www.w3.org/2000/svg">
<path d="M15.1857 6.99992L8.59969 13.5859C8.40867 13.7704 8.25631 13.9911 8.15149 14.2351C8.04667 14.4791 7.9915 14.7416 7.98919 15.0071C7.98688 15.2727 8.03749 15.536 8.13805 15.7818C8.23861 16.0276 8.38712 16.2509 8.5749 16.4387C8.76269 16.6265 8.98599 16.775 9.23178 16.8756C9.47758 16.9761 9.74094 17.0267 10.0065 17.0244C10.2721 17.0221 10.5345 16.9669 10.7785 16.8621C11.0225 16.7573 11.2432 16.6049 11.4277 16.4139L17.8417 9.82792C18.5703 9.07351 18.9735 8.0631 18.9644 7.01431C18.9553 5.96553 18.5346 4.96228 17.793 4.22065C17.0513 3.47901 16.0481 3.05834 14.9993 3.04922C13.9505 3.04011 12.9401 3.44329 12.1857 4.17192L5.77069 10.7569C4.64538 11.8822 4.01318 13.4085 4.01318 14.9999C4.01318 16.5914 4.64538 18.1176 5.77069 19.2429C6.89601 20.3682 8.42226 21.0004 10.0137 21.0004C11.6051 21.0004 13.1314 20.3682 14.2567 19.2429L20.5137 12.9999" stroke="#939393" stroke-width="2" stroke-linecap="round" stroke-linejoin="round"/>
</svg>
