<svg width="25" height="24" viewBox="0 0 25 24" fill="none" xmlns="http://www.w3.org/2000/svg">
<path d="M11.0137 4.99992H6.01367C5.48324 4.99992 4.97453 5.21063 4.59946 5.5857C4.22439 5.96078 4.01367 6.46948 4.01367 6.99992V17.9999C4.01367 18.5304 4.22439 19.0391 4.59946 19.4141C4.97453 19.7892 5.48324 19.9999 6.01367 19.9999H17.0137C17.5441 19.9999 18.0528 19.7892 18.4279 19.4141C18.803 19.0391 19.0137 18.5304 19.0137 17.9999V12.9999M17.5997 3.58592C17.7842 3.3949 18.0049 3.24253 18.2489 3.13772C18.4929 3.0329 18.7553 2.97772 19.0209 2.97542C19.2864 2.97311 19.5498 3.02371 19.7956 3.12427C20.0414 3.22484 20.2647 3.37334 20.4525 3.56113C20.6402 3.74891 20.7888 3.97222 20.8893 4.21801C20.9899 4.4638 21.0405 4.72716 21.0382 4.99272C21.0359 5.25828 20.9807 5.52072 20.8759 5.76473C20.7711 6.00874 20.6187 6.22942 20.4277 6.41392L11.8417 14.9999H9.01367V12.1719L17.5997 3.58592Z" stroke="#939393" stroke-width="2" stroke-linecap="round" stroke-linejoin="round"/>
</svg>
