<svg width="25" height="24" viewBox="0 0 25 24" fill="none" xmlns="http://www.w3.org/2000/svg">
<path d="M16.0137 8L18.0137 6M18.0137 6L20.0137 4M18.0137 6L16.0137 4M18.0137 6L20.0137 8M5.01367 3C4.48324 3 3.97453 3.21071 3.59946 3.58579C3.22439 3.96086 3.01367 4.46957 3.01367 5V6C3.01367 14.284 9.72967 21 18.0137 21H19.0137C19.5441 21 20.0528 20.7893 20.4279 20.4142C20.803 20.0391 21.0137 19.5304 21.0137 19V15.72C21.0135 15.5102 20.9474 15.3058 20.8246 15.1356C20.7019 14.9655 20.5287 14.8383 20.3297 14.772L15.8367 13.274C15.6083 13.1981 15.3603 13.2071 15.138 13.2993C14.9158 13.3915 14.7342 13.5607 14.6267 13.776L13.4967 16.033C11.048 14.9264 9.08679 12.9649 7.98067 10.516L10.2377 9.388C10.4529 9.28045 10.6222 9.0989 10.7144 8.87665C10.8066 8.65439 10.8156 8.40634 10.7397 8.178L9.24167 3.683C9.17515 3.48398 9.04771 3.31093 8.87739 3.18835C8.70708 3.06577 8.50251 2.99988 8.29267 3H5.01367Z" stroke="#939393" stroke-width="2" stroke-linecap="round" stroke-linejoin="round"/>
</svg>
