<svg width="25" height="24" viewBox="0 0 25 24" fill="none" xmlns="http://www.w3.org/2000/svg">
<path d="M3.59946 3.58579C3.22439 3.96086 3.01367 4.46957 3.01367 5V6C3.01367 14.284 9.72967 21 18.0137 21H19.0137C19.5441 21 20.0528 20.7893 20.4279 20.4142C20.803 20.0391 21.0137 19.5304 21.0137 19V15.721C21.0137 15.511 20.9477 15.3064 20.8249 15.136C20.7021 14.9657 20.5289 14.8383 20.3297 14.772L15.8367 13.274C15.6083 13.1981 15.3603 13.2071 15.138 13.2993C14.9158 13.3915 14.7342 13.5607 14.6267 13.776L13.4967 16.033C11.0481 14.9267 9.08699 12.9655 7.98067 10.517L10.2377 9.387C10.4529 9.27945 10.6222 9.0979 10.7144 8.87564C10.8066 8.65339 10.8156 8.40534 10.7397 8.177L9.24167 3.684C9.17538 3.48496 9.04816 3.3118 8.87803 3.18905C8.7079 3.0663 8.50347 3.00016 8.29367 3H5.01367C4.48324 3 3.97453 3.21071 3.59946 3.58579Z" stroke="#939393" stroke-width="2" stroke-linecap="round" stroke-linejoin="round"/>
</svg>
