<svg width="25" height="24" viewBox="0 0 25 24" fill="none" xmlns="http://www.w3.org/2000/svg">
<path d="M11.5687 9.03607L14.7657 11.1681C14.9026 11.2594 15.0149 11.3841 15.0926 11.5293C15.1703 11.6744 15.2109 11.8365 15.2109 12.0011C15.2109 12.1657 15.1703 12.3278 15.0926 12.4729C15.0149 12.618 14.9026 12.7417 14.7657 12.8331L11.5687 14.9651C11.4181 15.0656 11.243 15.1233 11.0622 15.132C10.8814 15.1408 10.7015 15.1004 10.5419 15.0149C10.3823 14.9295 10.2488 14.8024 10.1558 14.6471C10.0628 14.4918 10.0136 14.3141 10.0137 14.1331V9.87007C10.0133 9.68886 10.0621 9.51095 10.155 9.35535C10.2479 9.19975 10.3813 9.07232 10.541 8.98667C10.7007 8.90102 10.8807 8.86037 11.0617 8.86907C11.2427 8.87778 11.4179 8.9355 11.5687 9.03607Z" stroke="#939393" stroke-width="2" stroke-linecap="round" stroke-linejoin="round"/>
<path d="M20.3286 15.4442C20.7809 14.3522 21.0137 13.1819 21.0137 12C21.0137 9.61305 20.0655 7.32387 18.3776 5.63604C16.6898 3.94821 14.4006 3 12.0137 3C9.62672 3 7.33754 3.94821 5.64971 5.63604C3.96188 7.32387 3.01367 9.61305 3.01367 12C3.01367 13.1819 3.24646 14.3522 3.69876 15.4442C4.15105 16.5361 4.81398 17.5282 5.64971 18.364C6.48544 19.1997 7.47759 19.8626 8.56952 20.3149C9.66145 20.7672 10.8318 21 12.0137 21C13.1956 21 14.3659 20.7672 15.4578 20.3149C16.5498 19.8626 17.5419 19.1997 18.3776 18.364C19.2134 17.5282 19.8763 16.5361 20.3286 15.4442Z" stroke="#939393" stroke-width="2" stroke-linecap="round" stroke-linejoin="round"/>
</svg>
