<svg width="25" height="24" viewBox="0 0 25 24" fill="none" xmlns="http://www.w3.org/2000/svg">
<path d="M17.0137 17H19.0137C19.5441 17 20.0528 16.7893 20.4279 16.4142C20.803 16.0391 21.0137 15.5304 21.0137 15V11C21.0137 10.4696 20.803 9.96086 20.4279 9.58579C20.0528 9.21071 19.5441 9 19.0137 9H5.01367C4.48324 9 3.97453 9.21071 3.59946 9.58579C3.22439 9.96086 3.01367 10.4696 3.01367 11V15C3.01367 15.5304 3.22439 16.0391 3.59946 16.4142C3.97453 16.7893 4.48324 17 5.01367 17H7.01367M9.01367 21H15.0137C15.5441 21 16.0528 20.7893 16.4279 20.4142C16.803 20.0391 17.0137 19.5304 17.0137 19V15C17.0137 14.4696 16.803 13.9609 16.4279 13.5858C16.0528 13.2107 15.5441 13 15.0137 13H9.01367C8.48324 13 7.97453 13.2107 7.59946 13.5858C7.22439 13.9609 7.01367 14.4696 7.01367 15V19C7.01367 19.5304 7.22439 20.0391 7.59946 20.4142C7.97453 20.7893 8.48324 21 9.01367 21ZM17.0137 9V5C17.0137 4.46957 16.803 3.96086 16.4279 3.58579C16.0528 3.21071 15.5441 3 15.0137 3H9.01367C8.48324 3 7.97453 3.21071 7.59946 3.58579C7.22439 3.96086 7.01367 4.46957 7.01367 5V9H17.0137Z" stroke="#939393" stroke-width="2" stroke-linecap="round" stroke-linejoin="round"/>
</svg>
