<svg width="25" height="24" viewBox="0 0 25 24" fill="none" xmlns="http://www.w3.org/2000/svg">
<path d="M11.5995 2.58579C11.2244 2.96086 11.0137 3.46957 11.0137 4V5C11.0137 5.26522 10.9083 5.51957 10.7208 5.70711C10.5332 5.89464 10.2789 6 10.0137 6H7.01367C6.74846 6 6.4941 6.10536 6.30657 6.29289C6.11903 6.48043 6.01367 6.73478 6.01367 7V10C6.01367 10.2652 5.90831 10.5196 5.72078 10.7071C5.53324 10.8946 5.27889 11 5.01367 11H4.01367C3.48324 11 2.97453 11.2107 2.59946 11.5858C2.22439 11.9609 2.01367 12.4696 2.01367 13C2.01367 13.5304 2.22439 14.0391 2.59946 14.4142C2.97453 14.7893 3.48324 15 4.01367 15H5.01367C5.27889 15 5.53324 15.1054 5.72078 15.2929C5.90831 15.4804 6.01367 15.7348 6.01367 16V19C6.01367 19.2652 6.11903 19.5196 6.30657 19.7071C6.4941 19.8946 6.74846 20 7.01367 20H10.0137C10.2789 20 10.5332 19.8946 10.7208 19.7071C10.9083 19.5196 11.0137 19.2652 11.0137 19V18C11.0137 17.4696 11.2244 16.9609 11.5995 16.5858C11.9745 16.2107 12.4832 16 13.0137 16C13.5441 16 14.0528 16.2107 14.4279 16.5858C14.803 16.9609 15.0137 17.4696 15.0137 18V19C15.0137 19.2652 15.119 19.5196 15.3066 19.7071C15.4941 19.8946 15.7485 20 16.0137 20H19.0137C19.2789 20 19.5332 19.8946 19.7208 19.7071C19.9083 19.5196 20.0137 19.2652 20.0137 19V16C20.0137 15.7348 19.9083 15.4804 19.7208 15.2929C19.5332 15.1054 19.2789 15 19.0137 15H18.0137C17.4832 15 16.9745 14.7893 16.5995 14.4142C16.2244 14.0391 16.0137 13.5304 16.0137 13C16.0137 12.4696 16.2244 11.9609 16.5995 11.5858C16.9745 11.2107 17.4832 11 18.0137 11H19.0137C19.2789 11 19.5332 10.8946 19.7208 10.7071C19.9083 10.5196 20.0137 10.2652 20.0137 10V7C20.0137 6.73478 19.9083 6.48043 19.7208 6.29289C19.5332 6.10536 19.2789 6 19.0137 6H16.0137C15.7485 6 15.4941 5.89464 15.3066 5.70711C15.119 5.51957 15.0137 5.26522 15.0137 5V4C15.0137 3.46957 14.803 2.96086 14.4279 2.58579C14.0528 2.21071 13.5441 2 13.0137 2C12.4832 2 11.9745 2.21071 11.5995 2.58579Z" stroke="#939393" stroke-width="2" stroke-linecap="round" stroke-linejoin="round"/>
</svg>
