<svg width="25" height="24" viewBox="0 0 25 24" fill="none" xmlns="http://www.w3.org/2000/svg">
<path d="M12.0137 4V5M18.0137 16H20.0137M14.0137 16H12.0137V20M12.0137 9V12M12.0137 12H12.0237M12.0137 12H16.0237M16.0137 20H20.0137M4.01367 12H8.01367M20.0137 12H20.0237M5.01367 8H7.01367C7.27889 8 7.53324 7.89464 7.72078 7.70711C7.90831 7.51957 8.01367 7.26522 8.01367 7V5C8.01367 4.73478 7.90831 4.48043 7.72078 4.29289C7.53324 4.10536 7.27889 4 7.01367 4H5.01367C4.74846 4 4.4941 4.10536 4.30657 4.29289C4.11903 4.48043 4.01367 4.73478 4.01367 5V7C4.01367 7.26522 4.11903 7.51957 4.30657 7.70711C4.4941 7.89464 4.74846 8 5.01367 8ZM17.0137 8H19.0137C19.2789 8 19.5332 7.89464 19.7208 7.70711C19.9083 7.51957 20.0137 7.26522 20.0137 7V5C20.0137 4.73478 19.9083 4.48043 19.7208 4.29289C19.5332 4.10536 19.2789 4 19.0137 4H17.0137C16.7485 4 16.4941 4.10536 16.3066 4.29289C16.119 4.48043 16.0137 4.73478 16.0137 5V7C16.0137 7.26522 16.119 7.51957 16.3066 7.70711C16.4941 7.89464 16.7485 8 17.0137 8ZM5.01367 20H7.01367C7.27889 20 7.53324 19.8946 7.72078 19.7071C7.90831 19.5196 8.01367 19.2652 8.01367 19V17C8.01367 16.7348 7.90831 16.4804 7.72078 16.2929C7.53324 16.1054 7.27889 16 7.01367 16H5.01367C4.74846 16 4.4941 16.1054 4.30657 16.2929C4.11903 16.4804 4.01367 16.7348 4.01367 17V19C4.01367 19.2652 4.11903 19.5196 4.30657 19.7071C4.4941 19.8946 4.74846 20 5.01367 20Z" stroke="#939393" stroke-width="2" stroke-linecap="round" stroke-linejoin="round"/>
</svg>
