<svg width="25" height="24" viewBox="0 0 25 24" fill="none" xmlns="http://www.w3.org/2000/svg">
<path d="M16.0137 15V14C16.0137 12.9391 15.5922 11.9217 14.8421 11.1716C14.092 10.4214 13.0745 10 12.0137 10H8.01367M8.01367 10L11.0137 13M8.01367 10L11.0137 7M20.0137 21V5C20.0137 4.46957 19.803 3.96086 19.4279 3.58579C19.0528 3.21071 18.5441 3 18.0137 3H6.01367C5.48324 3 4.97453 3.21071 4.59946 3.58579C4.22439 3.96086 4.01367 4.46957 4.01367 5V21L8.01367 19L12.0137 21L16.0137 19L20.0137 21Z" stroke="#939393" stroke-width="2" stroke-linecap="round" stroke-linejoin="round"/>
</svg>
