<svg width="25" height="24" viewBox="0 0 25 24" fill="none" xmlns="http://www.w3.org/2000/svg">
<path d="M9.01367 14L15.0137 8M9.51367 8.5H9.52367M14.5137 13.5H14.5237M19.0137 21V5C19.0137 4.46957 18.803 3.96086 18.4279 3.58579C18.0528 3.21071 17.5441 3 17.0137 3H7.01367C6.48324 3 5.97453 3.21071 5.59946 3.58579C5.22439 3.96086 5.01367 4.46957 5.01367 5V21L8.51367 19L12.0137 21L15.5137 19L19.0137 21ZM10.0137 8.5C10.0137 8.63261 9.96099 8.75979 9.86723 8.85355C9.77346 8.94732 9.64628 9 9.51367 9C9.38106 9 9.25389 8.94732 9.16012 8.85355C9.06635 8.75979 9.01367 8.63261 9.01367 8.5C9.01367 8.36739 9.06635 8.24021 9.16012 8.14645C9.25389 8.05268 9.38106 8 9.51367 8C9.64628 8 9.77346 8.05268 9.86723 8.14645C9.96099 8.24021 10.0137 8.36739 10.0137 8.5ZM15.0137 13.5C15.0137 13.6326 14.961 13.7598 14.8672 13.8536C14.7735 13.9473 14.6463 14 14.5137 14C14.3811 14 14.2539 13.9473 14.1601 13.8536C14.0663 13.7598 14.0137 13.6326 14.0137 13.5C14.0137 13.3674 14.0663 13.2402 14.1601 13.1464C14.2539 13.0527 14.3811 13 14.5137 13C14.6463 13 14.7735 13.0527 14.8672 13.1464C14.961 13.2402 15.0137 13.3674 15.0137 13.5Z" stroke="#939393" stroke-width="2" stroke-linecap="round" stroke-linejoin="round"/>
</svg>
