<svg width="25" height="24" viewBox="0 0 25 24" fill="none" xmlns="http://www.w3.org/2000/svg">
<path d="M4.01367 3.99993V8.99993H4.59567M4.59567 8.99993C5.25952 7.35806 6.44935 5.98284 7.9787 5.08979C9.50805 4.19674 11.2905 3.83634 13.0466 4.06507C14.8028 4.29379 16.4335 5.09872 17.683 6.3537C18.9326 7.60869 19.7305 9.24279 19.9517 10.9999M4.59567 8.99993H9.01367M20.0137 19.9999V14.9999H19.4327M19.4327 14.9999C18.7679 16.6408 17.5777 18.015 16.0485 18.9072C14.5193 19.7995 12.7374 20.1594 10.9818 19.9308C9.22613 19.7022 7.59587 18.8978 6.34621 17.6437C5.09654 16.3895 4.29803 14.7564 4.07567 12.9999M19.4327 14.9999H15.0137" stroke="#939393" stroke-width="2" stroke-linecap="round" stroke-linejoin="round"/>
</svg>
