<svg width="25" height="24" viewBox="0 0 25 24" fill="none" xmlns="http://www.w3.org/2000/svg">
<path d="M11.7853 11.5528C11.8547 11.4139 11.9555 11.2931 12.0797 11.2H12.0807L17.4137 7.2C17.5623 7.08857 17.7389 7.02072 17.9239 7.00404C18.1088 6.98736 18.2948 7.02252 18.4609 7.10557C18.627 7.18863 18.7667 7.31629 18.8643 7.47427C18.962 7.63225 19.0137 7.81429 19.0137 8V16C19.0137 16.1857 18.962 16.3678 18.8643 16.5257C18.7667 16.6837 18.627 16.8114 18.4609 16.8944C18.2948 16.9775 18.1088 17.0126 17.9239 16.996C17.7389 16.9793 17.5623 16.9114 17.4137 16.8L12.0797 12.8C11.9555 12.7069 11.8547 12.5861 11.7853 12.4472C11.7158 12.3084 11.6797 12.1552 11.6797 12C11.6797 11.8448 11.7158 11.6916 11.7853 11.5528Z" stroke="#939393" stroke-width="2" stroke-linecap="round" stroke-linejoin="round"/>
<path d="M3.78526 11.5528C3.85469 11.4139 3.95549 11.2931 4.07969 11.2L9.41369 7.2C9.56226 7.08857 9.73892 7.02072 9.92388 7.00404C10.1088 6.98736 10.2948 7.02252 10.4609 7.10557C10.627 7.18863 10.7667 7.31629 10.8643 7.47427C10.962 7.63225 11.0137 7.81429 11.0137 8V16C11.0137 16.1857 10.962 16.3678 10.8643 16.5257C10.7667 16.6837 10.627 16.8114 10.4609 16.8944C10.2948 16.9775 10.1088 17.0126 9.92388 16.996C9.73892 16.9793 9.56226 16.9114 9.41369 16.8L4.07969 12.8C3.95549 12.7069 3.85469 12.5861 3.78526 12.4472C3.71583 12.3084 3.67969 12.1552 3.67969 12C3.67969 11.8448 3.71583 11.6916 3.78526 11.5528Z" stroke="#939393" stroke-width="2" stroke-linecap="round" stroke-linejoin="round"/>
</svg>
