<svg width="25" height="24" viewBox="0 0 25 24" fill="none" xmlns="http://www.w3.org/2000/svg">
<path d="M6.01367 5C13.1937 5 19.0137 10.82 19.0137 18M6.01367 11C7.87019 11 9.65066 11.7375 10.9634 13.0503C12.2762 14.363 13.0137 16.1435 13.0137 18M7.01367 18C7.01367 18.2652 6.90831 18.5196 6.72078 18.7071C6.53324 18.8946 6.27889 19 6.01367 19C5.74846 19 5.4941 18.8946 5.30657 18.7071C5.11903 18.5196 5.01367 18.2652 5.01367 18C5.01367 17.7348 5.11903 17.4804 5.30657 17.2929C5.4941 17.1054 5.74846 17 6.01367 17C6.27889 17 6.53324 17.1054 6.72078 17.2929C6.90831 17.4804 7.01367 17.7348 7.01367 18Z" stroke="#939393" stroke-width="2" stroke-linecap="round" stroke-linejoin="round"/>
</svg>
