<svg width="25" height="24" viewBox="0 0 25 24" fill="none" xmlns="http://www.w3.org/2000/svg">
<path d="M8.01367 7H5.01367C4.48324 7 3.97453 7.21071 3.59946 7.58579C3.22439 7.96086 3.01367 8.46957 3.01367 9V18C3.01367 18.5304 3.22439 19.0391 3.59946 19.4142C3.97453 19.7893 4.48324 20 5.01367 20H19.0137C19.5441 20 20.0528 19.7893 20.4279 19.4142C20.803 19.0391 21.0137 18.5304 21.0137 18V9C21.0137 8.46957 20.803 7.96086 20.4279 7.58579C20.0528 7.21071 19.5441 7 19.0137 7H16.0137M15.0137 11L12.0137 14M12.0137 14L9.01367 11M12.0137 14V4" stroke="#939393" stroke-width="2" stroke-linecap="round" stroke-linejoin="round"/>
</svg>
