<svg width="25" height="24" viewBox="0 0 25 24" fill="none" xmlns="http://www.w3.org/2000/svg">
<path d="M17.0137 16V18C17.0137 18.5304 16.803 19.0391 16.4279 19.4142C16.0528 19.7893 15.5441 20 15.0137 20H5.01367C4.48324 20 3.97453 19.7893 3.59946 19.4142C3.22439 19.0391 3.01367 18.5304 3.01367 18V11C3.01367 10.4696 3.22439 9.96086 3.59946 9.58579C3.97453 9.21071 4.48324 9 5.01367 9H7.01367M10.0137 5H9.01367C8.48324 5 7.97453 5.21071 7.59946 5.58579C7.22439 5.96086 7.01367 6.46957 7.01367 7V14C7.01367 14.5304 7.22439 15.0391 7.59946 15.4142C7.97453 15.7893 8.48324 16 9.01367 16H19.0137C19.5441 16 20.0528 15.7893 20.4279 15.4142C20.803 15.0391 21.0137 14.5304 21.0137 14V7C21.0137 6.46957 20.803 5.96086 20.4279 5.58579C20.0528 5.21071 19.5441 5 19.0137 5H18.0137M17.0137 9L14.0137 12M14.0137 12L11.0137 9M14.0137 12V3" stroke="#939393" stroke-width="2" stroke-linecap="round" stroke-linejoin="round"/>
</svg>
