<svg width="25" height="24" viewBox="0 0 25 24" fill="none" xmlns="http://www.w3.org/2000/svg">
<path d="M3.01367 6L6.01367 7M6.01367 7L3.01367 16C3.87937 16.649 4.93219 16.9999 6.01417 16.9999C7.09616 16.9999 8.14897 16.649 9.01467 16L6.01367 7ZM6.01367 7L9.01367 16M6.01367 7L12.0137 5M12.0137 5L18.0137 7M12.0137 5V3M12.0137 5V21M18.0137 7L21.0137 6M18.0137 7L15.0137 16C15.8794 16.649 16.9322 16.9999 18.0142 16.9999C19.0962 16.9999 20.149 16.649 21.0147 16L18.0137 7ZM12.0137 21H9.01367M12.0137 21H15.0137" stroke="#939393" stroke-width="2" stroke-linecap="round" stroke-linejoin="round"/>
</svg>
