<svg width="25" height="24" viewBox="0 0 25 24" fill="none" xmlns="http://www.w3.org/2000/svg">
<path d="M14.1347 14.121L19.0137 19M12.0137 12L19.0137 5.00002M12.0137 12L9.13469 14.879M12.0137 12L9.13469 9.12102M9.13469 14.879C8.57204 14.3164 7.80891 14.0003 7.01319 14.0003C6.21748 14.0003 5.45435 14.3164 4.89169 14.879C4.32904 15.4417 4.01294 16.2048 4.01294 17.0005C4.01294 17.7962 4.32904 18.5594 4.89169 19.122C5.45435 19.6847 6.21748 20.0008 7.01319 20.0008C7.80891 20.0008 8.57204 19.6847 9.13469 19.122C9.69735 18.5594 10.0134 17.7962 10.0134 17.0005C10.0134 16.2048 9.69735 15.4417 9.13469 14.879ZM9.13469 9.12102C9.69735 8.55837 10.0134 7.79524 10.0134 6.99952C10.0134 6.2038 9.69735 5.44068 9.13469 4.87802C8.57204 4.31536 7.80891 3.99927 7.01319 3.99927C6.21748 3.99927 5.45435 4.31536 4.89169 4.87802C4.32904 5.44068 4.01294 6.2038 4.01294 6.99952C4.01294 7.79524 4.32904 8.55837 4.89169 9.12102C5.45435 9.68368 6.21748 9.99978 7.01319 9.99978C7.80891 9.99978 8.57204 9.68368 9.13469 9.12102Z" stroke="#939393" stroke-width="2" stroke-linecap="round" stroke-linejoin="round"/>
</svg>
