<svg width="25" height="24" viewBox="0 0 25 24" fill="none" xmlns="http://www.w3.org/2000/svg">
<path d="M8.01367 16L10.8927 13.121M10.8927 13.121C11.1704 13.4033 11.5012 13.6279 11.8662 13.7817C12.2311 13.9355 12.6229 14.0156 13.0189 14.0172C13.4149 14.0189 13.8073 13.9421 14.1735 13.7914C14.5397 13.6406 14.8725 13.4188 15.1525 13.1388C15.4326 12.8588 15.6544 12.5262 15.8053 12.16C15.9561 11.7938 16.033 11.4014 16.0314 11.0054C16.0299 10.6094 15.9499 10.2176 15.7962 9.85265C15.6424 9.48768 15.4179 9.15677 15.1357 8.879C14.5716 8.32389 13.811 8.01417 13.0196 8.0173C12.2282 8.02043 11.4701 8.33615 10.9104 8.89571C10.3507 9.45526 10.0348 10.2133 10.0315 11.0047C10.0282 11.7961 10.3377 12.5568 10.8927 13.121ZM21.0137 12C21.0137 13.1819 20.7809 14.3522 20.3286 15.4442C19.8763 16.5361 19.2134 17.5282 18.3776 18.364C17.5419 19.1997 16.5498 19.8626 15.4578 20.3149C14.3659 20.7672 13.1956 21 12.0137 21C10.8318 21 9.66145 20.7672 8.56952 20.3149C7.47759 19.8626 6.48544 19.1997 5.64971 18.364C4.81398 17.5282 4.15105 16.5361 3.69876 15.4442C3.24646 14.3522 3.01367 13.1819 3.01367 12C3.01367 9.61305 3.96188 7.32387 5.64971 5.63604C7.33754 3.94821 9.62672 3 12.0137 3C14.4006 3 16.6898 3.94821 18.3776 5.63604C20.0655 7.32387 21.0137 9.61305 21.0137 12Z" stroke="#939393" stroke-width="2" stroke-linecap="round" stroke-linejoin="round"/>
</svg>
