<svg width="25" height="24" viewBox="0 0 25 24" fill="none" xmlns="http://www.w3.org/2000/svg">
<path d="M5.01367 12H19.0137M5.01367 12C4.48324 12 3.97453 11.7893 3.59946 11.4142C3.22439 11.0391 3.01367 10.5304 3.01367 10V6C3.01367 5.46957 3.22439 4.96086 3.59946 4.58579C3.97453 4.21071 4.48324 4 5.01367 4H19.0137C19.5441 4 20.0528 4.21071 20.4279 4.58579C20.803 4.96086 21.0137 5.46957 21.0137 6V10C21.0137 10.5304 20.803 11.0391 20.4279 11.4142C20.0528 11.7893 19.5441 12 19.0137 12M5.01367 12C4.48324 12 3.97453 12.2107 3.59946 12.5858C3.22439 12.9609 3.01367 13.4696 3.01367 14V18C3.01367 18.5304 3.22439 19.0391 3.59946 19.4142C3.97453 19.7893 4.48324 20 5.01367 20H19.0137C19.5441 20 20.0528 19.7893 20.4279 19.4142C20.803 19.0391 21.0137 18.5304 21.0137 18V14C21.0137 13.4696 20.803 12.9609 20.4279 12.5858C20.0528 12.2107 19.5441 12 19.0137 12M17.0137 8H17.0237M17.0137 16H17.0237" stroke="#939393" stroke-width="2" stroke-linecap="round" stroke-linejoin="round"/>
</svg>
