<svg width="25" height="24" viewBox="0 0 25 24" fill="none" xmlns="http://www.w3.org/2000/svg">
<path d="M8.69763 13.3421C8.89963 12.9381 9.01363 12.4821 9.01363 12.0001C9.01363 11.5181 8.89963 11.0621 8.69763 10.6581M8.69763 13.3421C8.39533 13.9465 7.89783 14.4311 7.28572 14.7175C6.67362 15.0038 5.98276 15.0751 5.32507 14.9198C4.66739 14.7645 4.0814 14.3917 3.66204 13.8618C3.24269 13.3319 3.01453 12.6759 3.01453 12.0001C3.01453 11.3243 3.24269 10.6684 3.66204 10.1384C4.0814 9.60853 4.66739 9.23572 5.32507 9.08041C5.98276 8.92511 6.67362 8.9964 7.28572 9.28275C7.89783 9.5691 8.39533 10.0537 8.69763 10.6581M8.69763 13.3421L15.3296 16.6581M8.69763 10.6581L15.3296 7.34211M15.3296 16.6581C14.9737 17.37 14.9151 18.194 15.1668 18.9491C15.4185 19.7041 15.9598 20.3282 16.6716 20.6841C17.3835 21.04 18.2075 21.0986 18.9626 20.8469C19.7176 20.5953 20.3417 20.054 20.6976 19.3421C21.0535 18.6303 21.1121 17.8062 20.8604 17.0512C20.6088 16.2962 20.0675 15.672 19.3556 15.3161C19.0032 15.1399 18.6194 15.0348 18.2264 15.0069C17.8333 14.9789 17.4385 15.0287 17.0647 15.1533C16.3097 15.405 15.6855 15.9463 15.3296 16.6581ZM15.3296 7.34211C15.5059 7.69452 15.7498 8.00876 16.0475 8.26689C16.3451 8.52503 16.6907 8.722 17.0645 8.84657C17.4383 8.97114 17.833 9.02087 18.226 8.99291C18.6191 8.96495 19.0027 8.85985 19.3551 8.68361C19.7075 8.50738 20.0218 8.26346 20.2799 7.96578C20.538 7.66811 20.735 7.3225 20.8596 6.9487C20.9842 6.5749 21.0339 6.18022 21.0059 5.7872C20.978 5.39418 20.8729 5.01052 20.6966 4.65811C20.3407 3.94641 19.7166 3.40524 18.9617 3.15366C18.2068 2.90208 17.3828 2.96069 16.6711 3.31661C15.9594 3.67253 15.4182 4.2966 15.1667 5.05153C14.9151 5.80646 14.9737 6.63041 15.3296 7.34211Z" stroke="#939393" stroke-width="2" stroke-linecap="round" stroke-linejoin="round"/>
</svg>
