<svg width="25" height="24" viewBox="0 0 25 24" fill="none" xmlns="http://www.w3.org/2000/svg">
<path d="M3.01367 3H5.01367L5.41367 5M5.41367 5H21.0137L17.0137 13H7.01367M5.41367 5L7.01367 13M7.01367 13L4.72067 15.293C4.09067 15.923 4.53667 17 5.42767 17H17.0137M17.0137 17C16.4832 17 15.9745 17.2107 15.5995 17.5858C15.2244 17.9609 15.0137 18.4696 15.0137 19C15.0137 19.5304 15.2244 20.0391 15.5995 20.4142C15.9745 20.7893 16.4832 21 17.0137 21C17.5441 21 18.0528 20.7893 18.4279 20.4142C18.803 20.0391 19.0137 19.5304 19.0137 19C19.0137 18.4696 18.803 17.9609 18.4279 17.5858C18.0528 17.2107 17.5441 17 17.0137 17ZM9.01367 19C9.01367 19.5304 8.80296 20.0391 8.42789 20.4142C8.05281 20.7893 7.5441 21 7.01367 21C6.48324 21 5.97453 20.7893 5.59946 20.4142C5.22439 20.0391 5.01367 19.5304 5.01367 19C5.01367 18.4696 5.22439 17.9609 5.59946 17.5858C5.97453 17.2107 6.48324 17 7.01367 17C7.5441 17 8.05281 17.2107 8.42789 17.5858C8.80296 17.9609 9.01367 18.4696 9.01367 19Z" stroke="#939393" stroke-width="2" stroke-linecap="round" stroke-linejoin="round"/>
</svg>
