<svg width="25" height="24" viewBox="0 0 25 24" fill="none" xmlns="http://www.w3.org/2000/svg">
<path d="M11.0136 5.882V19.24C11.0133 19.6545 10.8668 20.0555 10.5998 20.3725C10.3328 20.6896 9.96247 20.9022 9.55409 20.9729C9.1457 21.0437 8.72545 20.968 8.36737 20.7593C8.00928 20.5506 7.73635 20.2222 7.59664 19.832L5.44964 13.682M5.44964 13.682C4.60086 13.3211 3.90282 12.6791 3.47367 11.8627C3.04451 11.0463 2.9106 10.1067 3.09457 9.2029C3.27855 8.29912 3.76913 7.48665 4.48329 6.903C5.19745 6.31935 6.09132 6.00035 7.01364 6H8.84564C12.9456 6 16.4706 4.766 18.0136 3V17C16.4706 15.234 12.9466 14 8.84564 14H7.01364C6.47627 14.0008 5.94429 13.892 5.44964 13.682ZM18.0136 13C18.8093 13 19.5724 12.6839 20.135 12.1213C20.6976 11.5587 21.0136 10.7956 21.0136 10C21.0136 9.20435 20.6976 8.44129 20.135 7.87868C19.5724 7.31607 18.8093 7 18.0136 7V13Z" stroke="#939393" stroke-width="2" stroke-linecap="round" stroke-linejoin="round"/>
</svg>
