<svg width="25" height="24" viewBox="0 0 25 24" fill="none" xmlns="http://www.w3.org/2000/svg">
<path d="M12.9646 2.92708C12.6656 2.00608 11.3626 2.00608 11.0626 2.92708L9.54364 7.60108C9.47822 7.80173 9.35099 7.97654 9.18017 8.10048C9.00935 8.22442 8.80369 8.29113 8.59265 8.29108H3.67865C2.71065 8.29108 2.30665 9.53108 3.09065 10.1011L7.06665 12.9891C7.23744 13.1132 7.36455 13.2883 7.42975 13.4891C7.49496 13.6899 7.49492 13.9063 7.42965 14.1071L5.91164 18.7811C5.61164 19.7021 6.66665 20.4691 7.44965 19.8991L11.4256 17.0111C11.5965 16.8869 11.8024 16.8199 12.0136 16.8199C12.2249 16.8199 12.4308 16.8869 12.6016 17.0111L16.5776 19.8991C17.3606 20.4691 18.4156 19.7031 18.1156 18.7811L16.5976 14.1071C16.5324 13.9063 16.5323 13.6899 16.5975 13.4891C16.6627 13.2883 16.7899 13.1132 16.9606 12.9891L20.9366 10.1011C21.7196 9.53108 21.3176 8.29108 20.3486 8.29108H15.4336C15.2228 8.29092 15.0173 8.22411 14.8467 8.10018C14.6761 7.97626 14.549 7.80157 14.4836 7.60108L12.9646 2.92708Z" stroke="#939393" stroke-width="2" stroke-linecap="round" stroke-linejoin="round"/>
</svg>
