<svg width="25" height="24" viewBox="0 0 25 24" fill="none" xmlns="http://www.w3.org/2000/svg">
<path d="M5.64963 18.3642C4.81389 17.5285 4.15094 16.5363 3.69864 15.4444C3.24635 14.3525 3.01355 13.1821 3.01355 12.0002C3.01355 10.8183 3.24635 9.64799 3.69864 8.55605C4.15094 7.46412 4.81389 6.47196 5.64963 5.63623M18.3776 5.63623C19.2134 6.47196 19.8763 7.46412 20.3286 8.55605C20.7809 9.64799 21.0137 10.8183 21.0137 12.0002C21.0137 13.1821 20.7809 14.3525 20.3286 15.4444C19.8763 16.5363 19.2134 17.5285 18.3776 18.3642M8.47763 15.5352C7.54027 14.5976 7.0137 13.3261 7.0137 12.0002C7.0137 10.6744 7.54027 9.40287 8.47763 8.46523M15.5496 8.46523C16.487 9.40287 17.0136 10.6744 17.0136 12.0002C17.0136 13.3261 16.487 14.5976 15.5496 15.5352M13.0136 12.0002C13.0136 12.2654 12.9083 12.5198 12.7207 12.7073C12.5332 12.8949 12.2788 13.0002 12.0136 13.0002C11.7484 13.0002 11.4941 12.8949 11.3065 12.7073C11.119 12.5198 11.0136 12.2654 11.0136 12.0002C11.0136 11.735 11.119 11.4807 11.3065 11.2931C11.4941 11.1056 11.7484 11.0002 12.0136 11.0002C12.2788 11.0002 12.5332 11.1056 12.7207 11.2931C12.9083 11.4807 13.0136 11.735 13.0136 12.0002Z" stroke="#939393" stroke-width="2" stroke-linecap="round" stroke-linejoin="round"/>
</svg>
