<svg width="25" height="24" viewBox="0 0 25 24" fill="none" xmlns="http://www.w3.org/2000/svg">
<path d="M18.3776 5.636C19.2134 6.47173 19.8763 7.46389 20.3286 8.55582C20.7809 9.64776 21.0137 10.8181 21.0137 12C21.0137 13.1819 20.7809 14.3522 20.3286 15.4442C19.8763 16.5361 19.2134 17.5283 18.3776 18.364M18.3776 18.364L15.5486 15.535M18.3776 18.364L21.0136 21M15.5496 8.464C16.0141 8.92831 16.3825 9.47956 16.6338 10.0863C16.8852 10.693 17.0146 11.3433 17.0146 12C17.0146 12.6567 16.8852 13.307 16.6338 13.9137C16.3825 14.5204 16.0141 15.0717 15.5496 15.536L12.7206 12.707M12.7206 12.707C12.8162 12.6148 12.8923 12.5044 12.9447 12.3824C12.9972 12.2604 13.0247 12.1292 13.0259 11.9964C13.027 11.8636 13.0017 11.7319 12.9515 11.609C12.9012 11.4861 12.8269 11.3745 12.733 11.2806C12.6391 11.1867 12.5275 11.1125 12.4046 11.0622C12.2817 11.0119 12.15 10.9866 12.0172 10.9877C11.8845 10.9889 11.7532 11.0165 11.6312 11.0689C11.5092 11.1213 11.3989 11.1975 11.3066 11.293M12.7206 12.707L11.3066 11.293M8.47764 15.536C7.71112 14.7715 7.21471 13.778 7.06364 12.706M5.64964 18.364C4.46386 17.1788 3.63268 15.686 3.24981 14.0538C2.86693 12.4216 2.94757 10.7148 3.48264 9.126M11.3066 11.293L3.01364 3" stroke="#939393" stroke-width="2" stroke-linecap="round" stroke-linejoin="round"/>
</svg>
