<svg width="25" height="24" viewBox="0 0 25 24" fill="none" xmlns="http://www.w3.org/2000/svg">
<path d="M20.3286 15.4442C20.7809 14.3522 21.0137 13.1819 21.0137 12C21.0137 9.61305 20.0655 7.32387 18.3776 5.63604C16.6898 3.94821 14.4006 3 12.0137 3C9.62672 3 7.33754 3.94821 5.64971 5.63604C3.96188 7.32387 3.01367 9.61305 3.01367 12C3.01367 13.1819 3.24646 14.3522 3.69876 15.4442C4.15105 16.5361 4.81398 17.5282 5.64971 18.364C6.48544 19.1997 7.47759 19.8626 8.56952 20.3149C9.66145 20.7672 10.8318 21 12.0137 21C13.1956 21 14.3659 20.7672 15.4578 20.3149C16.5498 19.8626 17.5419 19.1997 18.3776 18.364C19.2134 17.5282 19.8763 16.5361 20.3286 15.4442Z" stroke="#939393" stroke-width="2" stroke-linecap="round" stroke-linejoin="round"/>
<path d="M9.01367 10C9.01367 9.73478 9.11903 9.48043 9.30657 9.29289C9.4941 9.10536 9.74846 9 10.0137 9H14.0137C14.2789 9 14.5332 9.10536 14.7208 9.29289C14.9083 9.48043 15.0137 9.73478 15.0137 10V14C15.0137 14.2652 14.9083 14.5196 14.7208 14.7071C14.5332 14.8946 14.2789 15 14.0137 15H10.0137C9.74846 15 9.4941 14.8946 9.30657 14.7071C9.11903 14.5196 9.01367 14.2652 9.01367 14V10Z" stroke="#939393" stroke-width="2" stroke-linecap="round" stroke-linejoin="round"/>
</svg>
