<svg width="25" height="24" viewBox="0 0 25 24" fill="none" xmlns="http://www.w3.org/2000/svg">
<path d="M12.0137 3V4M12.0137 20V21M21.0137 12H20.0137M4.01367 12H3.01367M18.3777 18.364L17.6707 17.657M6.35667 6.343L5.64967 5.636M18.3777 5.636L17.6707 6.343M6.35667 17.657L5.64967 18.364M16.0137 12C16.0137 13.0609 15.5922 14.0783 14.8421 14.8284C14.092 15.5786 13.0745 16 12.0137 16C10.9528 16 9.93539 15.5786 9.18524 14.8284C8.4351 14.0783 8.01367 13.0609 8.01367 12C8.01367 10.9391 8.4351 9.92172 9.18524 9.17157C9.93539 8.42143 10.9528 8 12.0137 8C13.0745 8 14.092 8.42143 14.8421 9.17157C15.5922 9.92172 16.0137 10.9391 16.0137 12Z" stroke="#939393" stroke-width="2" stroke-linecap="round" stroke-linejoin="round"/>
</svg>
