<svg width="25" height="24" viewBox="0 0 25 24" fill="none" xmlns="http://www.w3.org/2000/svg">
<path d="M18.3777 5.636L14.8417 9.172M18.3777 5.636C16.6898 3.94817 14.4006 3 12.0137 3C9.62672 3 7.3375 3.94817 5.64967 5.636M18.3777 5.636C20.0655 7.32383 21.0137 9.61305 21.0137 12C21.0137 13.1819 20.7809 14.3522 20.3286 15.4442C19.8763 16.5361 19.2134 17.5283 18.3777 18.364M14.8417 9.172C14.0915 8.42185 13.0745 8 12.0137 8C10.9528 8 9.93582 8.42185 9.18567 9.172M14.8417 9.172C15.5918 9.92215 16.0137 10.9391 16.0137 12C16.0137 13.0609 15.5918 14.0779 14.8417 14.828M14.8417 14.828L18.3777 18.364M14.8417 14.828C14.0915 15.5781 13.0745 16 12.0137 16C10.9528 16 9.93582 15.5781 9.18567 14.828M18.3777 18.364C17.5419 19.1997 16.5498 19.8626 15.4578 20.3149C14.3659 20.7672 13.1956 21 12.0137 21C10.8318 21 9.66145 20.7672 8.56952 20.3149C7.47759 19.8626 6.4854 19.1997 5.64967 18.364M9.18567 9.172L5.64967 5.636M9.18567 9.172C8.43553 9.92215 8.01367 10.9391 8.01367 12C8.01367 13.0609 8.43553 14.0779 9.18567 14.828M5.64967 5.636C3.96184 7.32383 3.01367 9.61305 3.01367 12C3.01367 13.1819 3.24646 14.3522 3.69876 15.4442C4.15105 16.5361 4.81394 17.5283 5.64967 18.364M9.18567 14.828L5.64967 18.364" stroke="#939393" stroke-width="2" stroke-linecap="round" stroke-linejoin="round"/>
</svg>
