<svg width="25" height="24" viewBox="0 0 25 24" fill="none" xmlns="http://www.w3.org/2000/svg">
<path d="M3.01367 10H21.0137M3.01367 14H21.0137M12.0137 10V18M5.01367 18H19.0137C19.5441 18 20.0528 17.7893 20.4279 17.4142C20.803 17.0391 21.0137 16.5304 21.0137 16V8C21.0137 7.46957 20.803 6.96086 20.4279 6.58579C20.0528 6.21071 19.5441 6 19.0137 6H5.01367C4.48324 6 3.97453 6.21071 3.59946 6.58579C3.22439 6.96086 3.01367 7.46957 3.01367 8V16C3.01367 16.5304 3.22439 17.0391 3.59946 17.4142C3.97453 17.7893 4.48324 18 5.01367 18Z" stroke="#939393" stroke-width="2" stroke-linecap="round" stroke-linejoin="round"/>
</svg>
