<svg width="25" height="24" viewBox="0 0 25 24" fill="none" xmlns="http://www.w3.org/2000/svg">
<path d="M7.01367 7H7.02367M7.01367 3H12.0137C12.5257 3 13.0377 3.195 13.4277 3.586L20.4277 10.586C20.8026 10.9611 21.0132 11.4697 21.0132 12C21.0132 12.5303 20.8026 13.0389 20.4277 13.414L13.4277 20.414C13.0526 20.7889 12.544 20.9996 12.0137 20.9996C11.4833 20.9996 10.9747 20.7889 10.5997 20.414L3.59967 13.414C3.41368 13.2285 3.26616 13.0081 3.1656 12.7655C3.06503 12.5228 3.0134 12.2627 3.01367 12V7C3.01367 5.93913 3.4351 4.92172 4.18525 4.17157C4.93539 3.42143 5.95281 3 7.01367 3Z" stroke="#939393" stroke-width="2" stroke-linecap="round" stroke-linejoin="round"/>
</svg>
