<svg width="25" height="24" viewBox="0 0 25 24" fill="none" xmlns="http://www.w3.org/2000/svg">
<path d="M4.30657 4.29289C4.11903 4.48043 4.01367 4.73478 4.01367 5V7C4.01367 7.26522 4.11903 7.51957 4.30657 7.70711C4.4941 7.89464 4.74846 8 5.01367 8H19.0137C19.2789 8 19.5332 7.89464 19.7208 7.70711C19.9083 7.51957 20.0137 7.26522 20.0137 7V5C20.0137 4.73478 19.9083 4.48043 19.7208 4.29289C19.5332 4.10536 19.2789 4 19.0137 4H5.01367C4.74846 4 4.4941 4.10536 4.30657 4.29289Z" stroke="#939393" stroke-width="2" stroke-linecap="round" stroke-linejoin="round"/>
<path d="M4.30657 12.2929C4.11903 12.4804 4.01367 12.7348 4.01367 13V19C4.01367 19.2652 4.11903 19.5196 4.30657 19.7071C4.4941 19.8946 4.74846 20 5.01367 20H11.0137C11.2789 20 11.5332 19.8946 11.7208 19.7071C11.9083 19.5196 12.0137 19.2652 12.0137 19V13C12.0137 12.7348 11.9083 12.4804 11.7208 12.2929C11.5332 12.1054 11.2789 12 11.0137 12H5.01367C4.74846 12 4.4941 12.1054 4.30657 12.2929Z" stroke="#939393" stroke-width="2" stroke-linecap="round" stroke-linejoin="round"/>
<path d="M16.3066 12.2929C16.119 12.4804 16.0137 12.7348 16.0137 13V19C16.0137 19.2652 16.119 19.5196 16.3066 19.7071C16.4941 19.8946 16.7485 20 17.0137 20H19.0137C19.2789 20 19.5332 19.8946 19.7208 19.7071C19.9083 19.5196 20.0137 19.2652 20.0137 19V13C20.0137 12.7348 19.9083 12.4804 19.7208 12.2929C19.5332 12.1054 19.2789 12 19.0137 12H17.0137C16.7485 12 16.4941 12.1054 16.3066 12.2929Z" stroke="#939393" stroke-width="2" stroke-linecap="round" stroke-linejoin="round"/>
</svg>
