<svg width="25" height="24" viewBox="0 0 25 24" fill="none" xmlns="http://www.w3.org/2000/svg">
<path d="M8.01367 9L11.0137 12L8.01367 15M13.0137 15H16.0137M5.01367 20H19.0137C19.5441 20 20.0528 19.7893 20.4279 19.4142C20.803 19.0391 21.0137 18.5304 21.0137 18V6C21.0137 5.46957 20.803 4.96086 20.4279 4.58579C20.0528 4.21071 19.5441 4 19.0137 4H5.01367C4.48324 4 3.97453 4.21071 3.59946 4.58579C3.22439 4.96086 3.01367 5.46957 3.01367 6V18C3.01367 18.5304 3.22439 19.0391 3.59946 19.4142C3.97453 19.7893 4.48324 20 5.01367 20Z" stroke="#939393" stroke-width="2" stroke-linecap="round" stroke-linejoin="round"/>
</svg>
