<svg width="25" height="24" viewBox="0 0 25 24" fill="none" xmlns="http://www.w3.org/2000/svg">
<path d="M14.0137 10H18.7777C19.1185 10 19.4537 10.0871 19.7515 10.2531C20.0492 10.4191 20.2996 10.6584 20.4788 10.9484C20.658 11.2383 20.7602 11.5692 20.7756 11.9098C20.7909 12.2503 20.719 12.5891 20.5667 12.894L17.0667 19.894C16.9005 20.2265 16.6451 20.5061 16.3289 20.7014C16.0127 20.8968 15.6483 21.0002 15.2767 21H11.2597C11.0967 21 10.9337 20.98 10.7747 20.94L7.01367 20M14.0137 10V5C14.0137 4.46957 13.803 3.96086 13.4279 3.58579C13.0528 3.21071 12.5441 3 12.0137 3H11.9187C11.4187 3 11.0137 3.405 11.0137 3.905C11.0137 4.619 10.8027 5.317 10.4057 5.911L7.01367 11V20M14.0137 10H12.0137M7.01367 20H5.01367C4.48324 20 3.97453 19.7893 3.59946 19.4142C3.22439 19.0391 3.01367 18.5304 3.01367 18V12C3.01367 11.4696 3.22439 10.9609 3.59946 10.5858C3.97453 10.2107 4.48324 10 5.01367 10H7.51367" stroke="#939393" stroke-width="2" stroke-linecap="round" stroke-linejoin="round"/>
</svg>
