<svg width="25" height="24" viewBox="0 0 25 24" fill="none" xmlns="http://www.w3.org/2000/svg">
<path d="M17.0127 4L13.2527 3.06C13.0941 3.02025 12.9312 3.0001 12.7677 3H8.74969C8.37819 3.00001 8.01405 3.10349 7.69806 3.29884C7.38208 3.49419 7.12675 3.77369 6.96069 4.106L3.46069 11.106C3.30832 11.4109 3.23641 11.7497 3.25179 12.0902C3.26717 12.4308 3.36933 12.7617 3.54856 13.0516C3.7278 13.3416 3.97816 13.5809 4.27589 13.7469C4.57361 13.9129 4.90882 14 5.24969 14H10.0137H12.0137M17.0127 4L17.0137 13L13.6217 18.088C13.2247 18.683 13.0137 19.381 13.0137 20.096C13.0137 20.595 12.6087 21 12.1087 21H12.0127C11.4823 21 10.9735 20.7893 10.5985 20.4142C10.2234 20.0391 10.0127 19.5304 10.0127 19V14M17.0127 4H19.0137C19.5441 4 20.0528 4.21071 20.4279 4.58579C20.803 4.96086 21.0137 5.46957 21.0137 6V12C21.0137 12.5304 20.803 13.0391 20.4279 13.4142C20.0528 13.7893 19.5441 14 19.0137 14H16.5137" stroke="#939393" stroke-width="2" stroke-linecap="round" stroke-linejoin="round"/>
</svg>
