<svg width="25" height="24" viewBox="0 0 25 24" fill="none" xmlns="http://www.w3.org/2000/svg">
<path d="M15.0137 5V7M15.0137 11V13M15.0137 17V19M5.01367 5C4.48324 5 3.97453 5.21071 3.59946 5.58579C3.22439 5.96086 3.01367 6.46957 3.01367 7V10C3.5441 10 4.05281 10.2107 4.42789 10.5858C4.80296 10.9609 5.01367 11.4696 5.01367 12C5.01367 12.5304 4.80296 13.0391 4.42789 13.4142C4.05281 13.7893 3.5441 14 3.01367 14V17C3.01367 17.5304 3.22439 18.0391 3.59946 18.4142C3.97453 18.7893 4.48324 19 5.01367 19H19.0137C19.5441 19 20.0528 18.7893 20.4279 18.4142C20.803 18.0391 21.0137 17.5304 21.0137 17V14C20.4832 14 19.9745 13.7893 19.5995 13.4142C19.2244 13.0391 19.0137 12.5304 19.0137 12C19.0137 11.4696 19.2244 10.9609 19.5995 10.5858C19.9745 10.2107 20.4832 10 21.0137 10V7C21.0137 6.46957 20.803 5.96086 20.4279 5.58579C20.0528 5.21071 19.5441 5 19.0137 5H5.01367Z" stroke="#939393" stroke-width="2" stroke-linecap="round" stroke-linejoin="round"/>
</svg>
