<svg width="25" height="24" viewBox="0 0 25 24" fill="none" xmlns="http://www.w3.org/2000/svg">
<path d="M10.0137 11V17M14.0137 11V17M4.01367 7H20.0137M19.0137 7L18.1467 19.142C18.1108 19.6466 17.885 20.1188 17.5148 20.4636C17.1446 20.8083 16.6575 21 16.1517 21H7.87567C7.36981 21 6.88274 20.8083 6.51256 20.4636C6.14238 20.1188 5.91659 19.6466 5.88067 19.142L5.01367 7H19.0137ZM15.0137 7V4C15.0137 3.73478 14.9083 3.48043 14.7208 3.29289C14.5332 3.10536 14.2789 3 14.0137 3H10.0137C9.74846 3 9.4941 3.10536 9.30657 3.29289C9.11903 3.48043 9.01367 3.73478 9.01367 4V7H15.0137Z" stroke="#939393" stroke-width="2" stroke-linecap="round" stroke-linejoin="round"/>
</svg>
