<svg width="25" height="24" viewBox="0 0 25 24" fill="none" xmlns="http://www.w3.org/2000/svg">
<path d="M8.42789 18.4142C8.80296 18.0391 9.01367 17.5304 9.01367 17C9.01367 16.4696 8.80296 15.9609 8.42789 15.5858C8.05281 15.2107 7.5441 15 7.01367 15C6.48324 15 5.97453 15.2107 5.59946 15.5858C5.22439 15.9609 5.01367 16.4696 5.01367 17C5.01367 17.5304 5.22439 18.0391 5.59946 18.4142C5.97453 18.7893 6.48324 19 7.01367 19C7.5441 19 8.05281 18.7893 8.42789 18.4142Z" stroke="#939393"/>
<path d="M18.4279 18.4142C18.803 18.0391 19.0137 17.5304 19.0137 17C19.0137 16.4696 18.803 15.9609 18.4279 15.5858C18.0528 15.2107 17.5441 15 17.0137 15C16.4832 15 15.9745 15.2107 15.5995 15.5858C15.2244 15.9609 15.0137 16.4696 15.0137 17C15.0137 17.5304 15.2244 18.0391 15.5995 18.4142C15.9745 18.7893 16.4832 19 17.0137 19C17.5441 19 18.0528 18.7893 18.4279 18.4142Z" stroke="#939393"/>
<path d="M13.0137 16V6C13.0137 5.73478 12.9083 5.48043 12.7208 5.29289C12.5332 5.10536 12.2789 5 12.0137 5H4.01367C3.74846 5 3.4941 5.10536 3.30657 5.29289C3.11903 5.48043 3.01367 5.73478 3.01367 6V16C3.01367 16.2652 3.11903 16.5196 3.30657 16.7071C3.4941 16.8946 3.74846 17 4.01367 17H5.01367M13.0137 16C13.0137 16.2652 12.9083 16.5196 12.7208 16.7071C12.5332 16.8946 12.2789 17 12.0137 17H9.01367M13.0137 16V8C13.0137 7.73478 13.119 7.48043 13.3066 7.29289C13.4941 7.10536 13.7485 7 14.0137 7H16.5997C16.8649 7.00006 17.1192 7.10545 17.3067 7.293L20.7207 10.707C20.9082 10.8945 21.0136 11.1488 21.0137 11.414V16C21.0137 16.2652 20.9083 16.5196 20.7208 16.7071C20.5332 16.8946 20.2789 17 20.0137 17H19.0137M13.0137 16C13.0137 16.2652 13.119 16.5196 13.3066 16.7071C13.4941 16.8946 13.7485 17 14.0137 17H15.0137M5.01367 17C5.01367 17.5304 5.22439 18.0391 5.59946 18.4142C5.97453 18.7893 6.48324 19 7.01367 19C7.5441 19 8.05281 18.7893 8.42789 18.4142C8.80296 18.0391 9.01367 17.5304 9.01367 17M5.01367 17C5.01367 16.4696 5.22439 15.9609 5.59946 15.5858C5.97453 15.2107 6.48324 15 7.01367 15C7.5441 15 8.05281 15.2107 8.42789 15.5858C8.80296 15.9609 9.01367 16.4696 9.01367 17M19.0137 17C19.0137 17.5304 18.803 18.0391 18.4279 18.4142C18.0528 18.7893 17.5441 19 17.0137 19C16.4832 19 15.9745 18.7893 15.5995 18.4142C15.2244 18.0391 15.0137 17.5304 15.0137 17M19.0137 17C19.0137 16.4696 18.803 15.9609 18.4279 15.5858C18.0528 15.2107 17.5441 15 17.0137 15C16.4832 15 15.9745 15.2107 15.5995 15.5858C15.2244 15.9609 15.0137 16.4696 15.0137 17" stroke="#939393" stroke-width="2" stroke-linecap="round" stroke-linejoin="round"/>
</svg>
