<svg width="25" height="24" viewBox="0 0 25 24" fill="none" xmlns="http://www.w3.org/2000/svg">
<path d="M5.13467 17.804C7.23309 16.6179 9.60325 15.9963 12.0137 16C14.5137 16 16.8607 16.655 18.8927 17.804M15.0137 10C15.0137 10.7956 14.6976 11.5587 14.135 12.1213C13.5724 12.6839 12.8093 13 12.0137 13C11.218 13 10.455 12.6839 9.89235 12.1213C9.32974 11.5587 9.01367 10.7956 9.01367 10C9.01367 9.20435 9.32974 8.44129 9.89235 7.87868C10.455 7.31607 11.218 7 12.0137 7C12.8093 7 13.5724 7.31607 14.135 7.87868C14.6976 8.44129 15.0137 9.20435 15.0137 10ZM21.0137 12C21.0137 13.1819 20.7809 14.3522 20.3286 15.4442C19.8763 16.5361 19.2134 17.5282 18.3776 18.364C17.5419 19.1997 16.5498 19.8626 15.4578 20.3149C14.3659 20.7672 13.1956 21 12.0137 21C10.8318 21 9.66145 20.7672 8.56952 20.3149C7.47759 19.8626 6.48544 19.1997 5.64971 18.364C4.81398 17.5282 4.15105 16.5361 3.69876 15.4442C3.24646 14.3522 3.01367 13.1819 3.01367 12C3.01367 9.61305 3.96188 7.32387 5.64971 5.63604C7.33754 3.94821 9.62672 3 12.0137 3C14.4006 3 16.6898 3.94821 18.3776 5.63604C20.0655 7.32387 21.0137 9.61305 21.0137 12Z" stroke="#939393" stroke-width="2" stroke-linecap="round" stroke-linejoin="round"/>
</svg>
