<svg width="25" height="24" viewBox="0 0 25 24" fill="none" xmlns="http://www.w3.org/2000/svg">
<path d="M21.0137 12H15.0137M13.0137 7C13.0137 8.06087 12.5922 9.07828 11.8421 9.82843C11.092 10.5786 10.0745 11 9.01367 11C7.95281 11 6.93539 10.5786 6.18524 9.82843C5.4351 9.07828 5.01367 8.06087 5.01367 7C5.01367 5.93913 5.4351 4.92172 6.18524 4.17157C6.93539 3.42143 7.95281 3 9.01367 3C10.0745 3 11.092 3.42143 11.8421 4.17157C12.5922 4.92172 13.0137 5.93913 13.0137 7ZM9.01367 14C7.42237 14 5.89625 14.6321 4.77103 15.7574C3.64581 16.8826 3.01367 18.4087 3.01367 20V21H15.0137V20C15.0137 18.4087 14.3815 16.8826 13.2563 15.7574C12.1311 14.6321 10.605 14 9.01367 14Z" stroke="#939393" stroke-width="2" stroke-linecap="round" stroke-linejoin="round"/>
</svg>
