<svg width="25" height="24" viewBox="0 0 25 24" fill="none" xmlns="http://www.w3.org/2000/svg">
<path d="M12.0137 4.354C12.5511 3.7447 13.2614 3.31351 14.0499 3.11779C14.8384 2.92208 15.6679 2.97112 16.4278 3.2584C17.1878 3.54568 17.8423 4.05757 18.3042 4.72596C18.766 5.39435 19.0135 6.18754 19.0135 7C19.0135 7.81246 18.766 8.60565 18.3042 9.27404C17.8423 9.94243 17.1878 10.4543 16.4278 10.7416C15.6679 11.0289 14.8384 11.0779 14.0499 10.8822C13.2614 10.6865 12.5511 10.2553 12.0137 9.646M15.0137 21H3.01367V20C3.01367 18.4087 3.64581 16.8826 4.77103 15.7574C5.89625 14.6321 7.42237 14 9.01367 14C10.605 14 12.1311 14.6321 13.2563 15.7574C14.3815 16.8826 15.0137 18.4087 15.0137 20V21ZM15.0137 21H21.0137V20C21.0138 18.9467 20.7367 17.9119 20.2101 16.9997C19.6836 16.0875 18.9262 15.3299 18.014 14.8032C17.1019 14.2765 16.0672 13.9992 15.0139 13.9992C13.9606 13.9991 12.9258 14.2764 12.0137 14.803M13.0137 7C13.0137 8.06087 12.5922 9.07828 11.8421 9.82843C11.092 10.5786 10.0745 11 9.01367 11C7.95281 11 6.93539 10.5786 6.18524 9.82843C5.4351 9.07828 5.01367 8.06087 5.01367 7C5.01367 5.93913 5.4351 4.92172 6.18524 4.17157C6.93539 3.42143 7.95281 3 9.01367 3C10.0745 3 11.092 3.42143 11.8421 4.17157C12.5922 4.92172 13.0137 5.93913 13.0137 7Z" stroke="#939393" stroke-width="2" stroke-linecap="round" stroke-linejoin="round"/>
</svg>
