<svg width="25" height="24" viewBox="0 0 25 24" fill="none" xmlns="http://www.w3.org/2000/svg">
<path d="M17.0137 20H22.0137V18C22.0136 17.3765 21.8193 16.7686 21.4578 16.2606C21.0963 15.7527 20.5855 15.37 19.9964 15.1658C19.4074 14.9615 18.7693 14.9459 18.1709 15.121C17.5726 15.2962 17.0436 15.6534 16.6577 16.143M17.0137 20H7.01367M17.0137 20V18C17.0137 17.344 16.8877 16.717 16.6577 16.143M16.6577 16.143C16.2863 15.215 15.6454 14.4195 14.8177 13.8591C13.9899 13.2988 13.0133 12.9993 12.0137 12.9993C11.0141 12.9993 10.0374 13.2988 9.20967 13.8591C8.38192 14.4195 7.74103 15.215 7.36967 16.143M7.01367 20H2.01367V18C2.01372 17.3765 2.20801 16.7686 2.56953 16.2606C2.93106 15.7527 3.44186 15.37 4.03092 15.1658C4.61999 14.9615 5.25805 14.9459 5.85641 15.121C6.45477 15.2962 6.9837 15.6534 7.36967 16.143M7.01367 20V18C7.01367 17.344 7.13967 16.717 7.36967 16.143M15.0137 7C15.0137 7.79565 14.6976 8.55871 14.135 9.12132C13.5724 9.68393 12.8093 10 12.0137 10C11.218 10 10.455 9.68393 9.89235 9.12132C9.32974 8.55871 9.01367 7.79565 9.01367 7C9.01367 6.20435 9.32974 5.44129 9.89235 4.87868C10.455 4.31607 11.218 4 12.0137 4C12.8093 4 13.5724 4.31607 14.135 4.87868C14.6976 5.44129 15.0137 6.20435 15.0137 7ZM21.0137 10C21.0137 10.5304 20.803 11.0391 20.4279 11.4142C20.0528 11.7893 19.5441 12 19.0137 12C18.4832 12 17.9745 11.7893 17.5995 11.4142C17.2244 11.0391 17.0137 10.5304 17.0137 10C17.0137 9.46957 17.2244 8.96086 17.5995 8.58579C17.9745 8.21071 18.4832 8 19.0137 8C19.5441 8 20.0528 8.21071 20.4279 8.58579C20.803 8.96086 21.0137 9.46957 21.0137 10ZM7.01367 10C7.01367 10.5304 6.80296 11.0391 6.42789 11.4142C6.05281 11.7893 5.5441 12 5.01367 12C4.48324 12 3.97453 11.7893 3.59946 11.4142C3.22439 11.0391 3.01367 10.5304 3.01367 10C3.01367 9.46957 3.22439 8.96086 3.59946 8.58579C3.97453 8.21071 4.48324 8 5.01367 8C5.5441 8 6.05281 8.21071 6.42789 8.58579C6.80296 8.96086 7.01367 9.46957 7.01367 10Z" stroke="#939393" stroke-width="2" stroke-linecap="round" stroke-linejoin="round"/>
</svg>
