<svg width="25" height="24" viewBox="0 0 25 24" fill="none" xmlns="http://www.w3.org/2000/svg">
<path d="M14.8421 9.82843C15.5922 9.07828 16.0137 8.06087 16.0137 7C16.0137 5.93913 15.5922 4.92172 14.8421 4.17157C14.092 3.42143 13.0745 3 12.0137 3C10.9528 3 9.93539 3.42143 9.18524 4.17157C8.4351 4.92172 8.01367 5.93913 8.01367 7C8.01367 8.06087 8.4351 9.07828 9.18524 9.82843C9.93539 10.5786 10.9528 11 12.0137 11C13.0745 11 14.092 10.5786 14.8421 9.82843Z" stroke="#939393" stroke-width="2" stroke-linecap="round" stroke-linejoin="round"/>
<path d="M7.06392 16.0503C8.37668 14.7375 10.1572 14 12.0137 14C13.8702 14 15.6507 14.7375 16.9634 16.0503C18.2762 17.363 19.0137 19.1435 19.0137 21H5.01367C5.01367 19.1435 5.75117 17.363 7.06392 16.0503Z" stroke="#939393" stroke-width="2" stroke-linecap="round" stroke-linejoin="round"/>
</svg>
