<svg width="25" height="24" viewBox="0 0 25 24" fill="none" xmlns="http://www.w3.org/2000/svg">
<path d="M4.88469 4C3.6501 6.48586 3.00961 9.22445 3.01369 12C3.01369 14.874 3.68669 17.59 4.88469 20M19.0147 20C20.2489 17.5141 20.8891 14.7755 20.8847 12C20.8847 9.126 20.2117 6.41 19.0147 4M9.01369 9H10.2597C10.4769 9.0001 10.6881 9.0709 10.8615 9.2017C11.0349 9.3325 11.161 9.51619 11.2207 9.725L12.8067 15.275C12.8664 15.4838 12.9925 15.6675 13.1659 15.7983C13.3393 15.9291 13.5505 15.9999 13.7677 16H15.0137M16.0137 9H15.9337C15.6451 8.99988 15.36 9.0622 15.0978 9.18268C14.8356 9.30317 14.6025 9.47896 14.4147 9.698L9.61369 15.302C9.42573 15.5212 9.19255 15.697 8.93016 15.8175C8.66778 15.938 8.38242 16.0003 8.09369 16H8.01369" stroke="#939393" stroke-width="2" stroke-linecap="round" stroke-linejoin="round"/>
</svg>
