<svg width="25" height="24" viewBox="0 0 25 24" fill="none" xmlns="http://www.w3.org/2000/svg">
<path d="M15.0137 10L19.5667 7.724C19.7191 7.64784 19.8884 7.61188 20.0587 7.61955C20.2289 7.62721 20.3943 7.67825 20.5393 7.76781C20.6842 7.85736 20.8039 7.98248 20.8869 8.13127C20.97 8.28007 21.0136 8.44761 21.0137 8.618V15.382C21.0136 15.5524 20.97 15.7199 20.8869 15.8687C20.8039 16.0175 20.6842 16.1426 20.5393 16.2322C20.3943 16.3218 20.2289 16.3728 20.0587 16.3805C19.8884 16.3881 19.7191 16.3522 19.5667 16.276L15.0137 14V10ZM5.01367 18H13.0137C13.5441 18 14.0528 17.7893 14.4279 17.4142C14.803 17.0391 15.0137 16.5304 15.0137 16V8C15.0137 7.46957 14.803 6.96086 14.4279 6.58579C14.0528 6.21071 13.5441 6 13.0137 6H5.01367C4.48324 6 3.97453 6.21071 3.59946 6.58579C3.22439 6.96086 3.01367 7.46957 3.01367 8V16C3.01367 16.5304 3.22439 17.0391 3.59946 17.4142C3.97453 17.7893 4.48324 18 5.01367 18Z" stroke="#939393" stroke-width="2" stroke-linecap="round" stroke-linejoin="round"/>
</svg>
