<svg width="25" height="24" viewBox="0 0 25 24" fill="none" xmlns="http://www.w3.org/2000/svg">
<path d="M17.0137 14V20M14.0137 17H20.0137M6.01367 10H8.01367C8.5441 10 9.05281 9.78929 9.42789 9.41421C9.80296 9.03914 10.0137 8.53043 10.0137 8V6C10.0137 5.46957 9.80296 4.96086 9.42789 4.58579C9.05281 4.21071 8.5441 4 8.01367 4H6.01367C5.48324 4 4.97453 4.21071 4.59946 4.58579C4.22439 4.96086 4.01367 5.46957 4.01367 6V8C4.01367 8.53043 4.22439 9.03914 4.59946 9.41421C4.97453 9.78929 5.48324 10 6.01367 10ZM16.0137 10H18.0137C18.5441 10 19.0528 9.78929 19.4279 9.41421C19.803 9.03914 20.0137 8.53043 20.0137 8V6C20.0137 5.46957 19.803 4.96086 19.4279 4.58579C19.0528 4.21071 18.5441 4 18.0137 4H16.0137C15.4832 4 14.9745 4.21071 14.5995 4.58579C14.2244 4.96086 14.0137 5.46957 14.0137 6V8C14.0137 8.53043 14.2244 9.03914 14.5995 9.41421C14.9745 9.78929 15.4832 10 16.0137 10ZM6.01367 20H8.01367C8.5441 20 9.05281 19.7893 9.42789 19.4142C9.80296 19.0391 10.0137 18.5304 10.0137 18V16C10.0137 15.4696 9.80296 14.9609 9.42789 14.5858C9.05281 14.2107 8.5441 14 8.01367 14H6.01367C5.48324 14 4.97453 14.2107 4.59946 14.5858C4.22439 14.9609 4.01367 15.4696 4.01367 16V18C4.01367 18.5304 4.22439 19.0391 4.59946 19.4142C4.97453 19.7893 5.48324 20 6.01367 20Z" stroke="#939393" stroke-width="2" stroke-linecap="round" stroke-linejoin="round"/>
</svg>
