<svg width="25" height="24" viewBox="0 0 25 24" fill="none" xmlns="http://www.w3.org/2000/svg">
<path d="M9.01367 17V7M9.01367 17C9.01367 17.5304 8.80296 18.0391 8.42789 18.4142C8.05281 18.7893 7.5441 19 7.01367 19H5.01367C4.48324 19 3.97453 18.7893 3.59946 18.4142C3.22439 18.0391 3.01367 17.5304 3.01367 17V7C3.01367 6.46957 3.22439 5.96086 3.59946 5.58579C3.97453 5.21071 4.48324 5 5.01367 5H7.01367C7.5441 5 8.05281 5.21071 8.42789 5.58579C8.80296 5.96086 9.01367 6.46957 9.01367 7M9.01367 17C9.01367 17.5304 9.22439 18.0391 9.59946 18.4142C9.97453 18.7893 10.4832 19 11.0137 19H13.0137C13.5441 19 14.0528 18.7893 14.4279 18.4142C14.803 18.0391 15.0137 17.5304 15.0137 17M9.01367 7C9.01367 6.46957 9.22439 5.96086 9.59946 5.58579C9.97453 5.21071 10.4832 5 11.0137 5H13.0137C13.5441 5 14.0528 5.21071 14.4279 5.58579C14.803 5.96086 15.0137 6.46957 15.0137 7M15.0137 17V7M15.0137 17C15.0137 17.5304 15.2244 18.0391 15.5995 18.4142C15.9745 18.7893 16.4832 19 17.0137 19H19.0137C19.5441 19 20.0528 18.7893 20.4279 18.4142C20.803 18.0391 21.0137 17.5304 21.0137 17V7C21.0137 6.46957 20.803 5.96086 20.4279 5.58579C20.0528 5.21071 19.5441 5 19.0137 5H17.0137C16.4832 5 15.9745 5.21071 15.5995 5.58579C15.2244 5.96086 15.0137 6.46957 15.0137 7" stroke="#939393" stroke-width="2" stroke-linecap="round" stroke-linejoin="round"/>
</svg>
