<svg width="25" height="24" viewBox="0 0 25 24" fill="none" xmlns="http://www.w3.org/2000/svg">
<path d="M4.01367 15H5.59967L10.3067 19.707C10.9367 20.337 12.0137 19.891 12.0137 19V5.00001C12.0137 4.10901 10.9367 3.66301 10.3067 4.29301L5.59967 9.00001H4.01367C3.74846 9.00001 3.4941 9.10536 3.30657 9.2929C3.11903 9.48044 3.01367 9.73479 3.01367 10V14C3.01367 14.2652 3.11903 14.5196 3.30657 14.7071C3.4941 14.8946 3.74846 15 4.01367 15Z" stroke="#939393" stroke-width="2" stroke-linecap="round" stroke-linejoin="round"/>
<path d="M19.0137 12L21.0137 14M17.0137 14L19.0137 12L17.0137 14ZM19.0137 12L21.0137 10L19.0137 12ZM19.0137 12L17.0137 10L19.0137 12Z" stroke="#939393" stroke-width="2" stroke-linecap="round" stroke-linejoin="round"/>
</svg>
