<svg width="25" height="24" viewBox="0 0 25 24" fill="none" xmlns="http://www.w3.org/2000/svg">
<path d="M15.5497 8.46401C16.0141 8.92832 16.3825 9.47957 16.6339 10.0863C16.8852 10.693 17.0146 11.3433 17.0146 12C17.0146 12.6567 16.8852 13.307 16.6339 13.9137C16.3825 14.5204 16.0141 15.0717 15.5497 15.536M18.3777 5.63601C19.2134 6.47174 19.8764 7.46389 20.3287 8.55583C20.781 9.64777 21.0138 10.8181 21.0138 12C21.0138 13.1819 20.781 14.3522 20.3287 15.4442C19.8764 16.5361 19.2134 17.5283 18.3777 18.364M5.59967 15H4.01367C3.74846 15 3.4941 14.8946 3.30657 14.7071C3.11903 14.5196 3.01367 14.2652 3.01367 14V10C3.01367 9.73479 3.11903 9.48044 3.30657 9.2929C3.4941 9.10536 3.74846 9.00001 4.01367 9.00001H5.59967L10.3067 4.29301C10.9367 3.66301 12.0137 4.10901 12.0137 5.00001V19C12.0137 19.891 10.9367 20.337 10.3067 19.707L5.59967 15Z" stroke="#939393" stroke-width="2" stroke-linecap="round" stroke-linejoin="round"/>
</svg>
