<svg width="25" height="24" viewBox="0 0 25 24" fill="none" xmlns="http://www.w3.org/2000/svg">
<path d="M13.0137 10H7.01367M21.0137 21L15.0137 15L21.0137 21ZM17.0137 10C17.0137 10.9193 16.8326 11.8295 16.4808 12.6788C16.129 13.5281 15.6134 14.2997 14.9634 14.9497C14.3134 15.5998 13.5417 16.1154 12.6925 16.4672C11.8432 16.8189 10.9329 17 10.0137 17C9.09442 17 8.18417 16.8189 7.33489 16.4672C6.48561 16.1154 5.71393 15.5998 5.06392 14.9497C4.41391 14.2997 3.8983 13.5281 3.54652 12.6788C3.19473 11.8295 3.01367 10.9193 3.01367 10C3.01367 8.14348 3.75117 6.36301 5.06392 5.05025C6.37668 3.7375 8.15716 3 10.0137 3C11.8702 3 13.6507 3.7375 14.9634 5.05025C16.2762 6.36301 17.0137 8.14348 17.0137 10Z" stroke="#939393" stroke-width="2" stroke-linecap="round" stroke-linejoin="round"/>
</svg>
