<svg width="17" height="17" viewBox="0 0 17 17" fill="none" xmlns="http://www.w3.org/2000/svg">
<g id="Vector">
<path d="M14.9987 8.83083L16.4357 7.42442C16.8641 7.01889 16.6643 6.2982 16.1025 6.16383L14.1447 5.66414L14.6966 3.72617C14.8525 3.16873 14.3269 2.64295 13.7697 2.79895L11.8323 3.35105L11.3328 1.39258C11.2007 0.839483 10.4719 0.637202 10.0727 1.0592L8.66675 2.50739L7.26084 1.05923C6.86615 0.642014 6.13437 0.833171 6.00069 1.39261L5.50118 3.35108L3.56384 2.79898C3.00643 2.64292 2.481 3.16889 2.63693 3.7262L3.18884 5.66417L1.23103 6.16386C0.668903 6.29826 0.46956 7.01908 0.897747 7.42442L2.33478 8.83083L0.897747 10.2372C0.469372 10.6427 0.669122 11.3634 1.231 11.4978L3.18881 11.9975L2.6369 13.9355C2.48093 14.4929 3.00656 15.0187 3.56381 14.8627L5.50112 14.3106L6.00062 16.269C6.13934 16.8495 6.86612 17.0196 7.26078 16.6024L8.66675 15.1649L10.0727 16.6024C10.4633 17.0239 11.1972 16.8364 11.3328 16.269L11.8323 14.3106L13.7696 14.8627C14.327 15.0187 14.8525 14.4928 14.6965 13.9355L14.1446 11.9975L16.1024 11.4978C16.6645 11.3634 16.8639 10.6426 16.4357 10.2372L14.9987 8.83083Z" fill="#007AFF"/>
<path fill-rule="evenodd" clip-rule="evenodd" d="M12.6909 6.00913C12.8034 6.12165 12.8666 6.27423 12.8666 6.43333C12.8666 6.59243 12.8034 6.74501 12.6909 6.85753L7.89095 11.6575C7.77843 11.77 7.62585 11.8332 7.46675 11.8332C7.30765 11.8332 7.15506 11.77 7.04255 11.6575L4.64255 9.25753C4.53325 9.14437 4.47278 8.99281 4.47414 8.83549C4.47551 8.67817 4.53861 8.52768 4.64986 8.41644C4.7611 8.30519 4.91159 8.24209 5.06891 8.24072C5.22623 8.23936 5.37779 8.29983 5.49095 8.40913L7.46675 10.3849L11.8425 6.00913C11.9551 5.89665 12.1076 5.83346 12.2667 5.83346C12.4258 5.83346 12.5784 5.89665 12.6909 6.00913Z" fill="white"/>
</g>
</svg>
